<svg xmlns="http://www.w3.org/2000/svg" viewBox="0 0 15 7.44"><title>beaver-dam-15</title><path d="M7,4.15l-.08,0a1,1,0,0,1-.22.09,1.82,1.82,0,0,1-.34.06,3.15,3.15,0,0,1-.38,0l-.38,0-.34,0L5,4.49l-.1,0L5,4.44,5,4.38l.13-.06a1,1,0,0,1,.34-.09,3.08,3.08,0,0,1,.4,0l.38,0a2.18,2.18,0,0,0,.34,0,1.07,1.07,0,0,0,.24,0A.16.16,0,0,0,7,4.15Z" transform="translate(0.06 -3.89)"/><path d="M5.21,4.69A.79.79,0,0,1,5,4.82,2,2,0,0,1,4.57,5a2,2,0,0,1-.48.09.87.87,0,0,1-.22,0L4.06,5a2.4,2.4,0,0,1,.45-.17A3.25,3.25,0,0,1,5,4.71Z" transform="translate(0.06 -3.89)"/><path d="M4.92,5.3a.35.35,0,0,1-.06.08.67.67,0,0,1-.22.16,1,1,0,0,1-.37.08c-.14,0-.27,0-.42,0l-.1,0-.1,0-.19,0a1.49,1.49,0,0,0-.32.13l-.22.11L2.84,6a.35.35,0,0,1,.06-.08,1,1,0,0,1,.19-.19,1.1,1.1,0,0,1,.34-.19.8.8,0,0,1,.21-.06.28.28,0,0,1,.11,0l.11,0h.42a2.18,2.18,0,0,0,.34,0A.8.8,0,0,0,4.92,5.3Z" transform="translate(0.06 -3.89)"/><path d="M2.45,6.34a1.59,1.59,0,0,1,0,.17s0,.11,0,.17a.88.88,0,0,1-.06.19c0,.06,0,.13-.06.19s0,.11,0,.16l-.06.17a.61.61,0,0,1,0-.17.38.38,0,0,1,0-.19.3.3,0,0,1,0-.11.4.4,0,0,1,0-.11.7.7,0,0,1,.1-.19,1.36,1.36,0,0,1,.11-.16A.27.27,0,0,1,2.45,6.34Z" transform="translate(0.06 -3.89)"/><path d="M3.2,6.22l0,0A.3.3,0,0,1,3,6.34a.62.62,0,0,1-.26,0,.45.45,0,0,1-.14,0l-.14,0-.24-.08a.39.39,0,0,0-.19,0,.25.25,0,0,0-.13.08s0,0,0,0,0,0,0-.06A.24.24,0,0,1,2,6.17a.46.46,0,0,1,.27-.08,1,1,0,0,1,.29.06.38.38,0,0,0,.13,0l.11,0a1.15,1.15,0,0,0,.22,0Z" transform="translate(0.06 -3.89)"/><path d="M2.41,6.53l-.18.11-.18.09-.21.09-.21.09L1.47,7a1.09,1.09,0,0,1-.19.06.92.92,0,0,1,.13-.16.62.62,0,0,1,.16-.13l.21-.13A1.26,1.26,0,0,1,2,6.58l.21,0A.53.53,0,0,1,2.41,6.53Z" transform="translate(0.06 -3.89)"/><path d="M2.53,6.86,2.25,7l-.58.3a1.74,1.74,0,0,0-.27.2,1,1,0,0,1-.26.19.48.48,0,0,1-.22.08H.85a.16.16,0,0,0,.08,0,.5.5,0,0,0,.16-.13c.06-.06.11-.14.19-.24a.48.48,0,0,1,.13-.13.57.57,0,0,1,.16-.11A1.61,1.61,0,0,1,1.9,7a1.24,1.24,0,0,1,.3-.08Z" transform="translate(0.06 -3.89)"/><path d="M1.84,7.57a.7.7,0,0,1-.14.16l-.08.06-.1.06-.24.09a3,3,0,0,0-.4.13l-.19.09a.24.24,0,0,1,0-.06L.8,8,1,7.82a1.51,1.51,0,0,1,.24-.09l.22-.06.1,0,.1,0Z" transform="translate(0.06 -3.89)"/><path d="M1.44,8.26a1.4,1.4,0,0,1-.21.09L.8,8.53a4.26,4.26,0,0,0-.43.16l-.19.09s0,0,0-.06a.52.52,0,0,1,.1-.13A1,1,0,0,1,.5,8.45a1.62,1.62,0,0,1,.24-.11A1.51,1.51,0,0,1,1,8.28l.22,0A1.28,1.28,0,0,1,1.44,8.26Z" transform="translate(0.06 -3.89)"/><path d="M1.26,8.81a.36.36,0,0,1-.16.13L.93,9l-.1,0-.1,0a3.42,3.42,0,0,0-.35.2l-.18.11a.55.55,0,0,1,.1-.19.64.64,0,0,1,.14-.16L.66,9l.11,0,.11,0a.85.85,0,0,1,.19,0Z" transform="translate(0.06 -3.89)"/><path d="M1.3,9.42l-.19.16c-.11.09-.27.2-.43.31a2.73,2.73,0,0,0-.22.17c-.08,0-.14.09-.22.13a.55.55,0,0,1-.18.08H0l.06,0a.45.45,0,0,0,.11-.13,1,1,0,0,1,.18-.19l.22-.19A2.24,2.24,0,0,1,.8,9.58.76.76,0,0,1,1,9.49.7.7,0,0,1,1.3,9.42Z" transform="translate(0.06 -3.89)"/><path d="M1.09,10.29v0a.17.17,0,0,1,0,.11.43.43,0,0,1-.11.13.85.85,0,0,1-.16.09l-.16.06-.14,0-.1,0,0,0a.12.12,0,0,1,0,0l.06-.11a.79.79,0,0,1,.29-.2.67.67,0,0,1,.16-.06L1,10.35a.33.33,0,0,0,.1-.06S1.09,10.29,1.09,10.29Z" transform="translate(0.06 -3.89)"/><path d="M1.22,10.95a.89.89,0,0,1,.19-.08,3.27,3.27,0,0,1,.45-.08.7.7,0,0,1,.26,0,.37.37,0,0,1,.21.11l.11.08s0,0,0,0l0,0a.28.28,0,0,1-.16,0,.69.69,0,0,0-.18,0,1.15,1.15,0,0,0-.22,0,2.11,2.11,0,0,1-.45,0A.93.93,0,0,1,1.22,10.95Z" transform="translate(0.06 -3.89)"/><path d="M1,10l0,0a.3.3,0,0,1,.13,0,.33.33,0,0,1,.18,0,1.22,1.22,0,0,1,.18.13,1.1,1.1,0,0,1,.13.16l.08.14a.32.32,0,0,0,.1.13h0a.26.26,0,0,1-.13,0l-.13-.11-.13-.13a.84.84,0,0,0-.24-.19l-.1,0Z" transform="translate(0.06 -3.89)"/><path d="M1.52,9.12a3.46,3.46,0,0,1,.77.2,1,1,0,0,1,.19.08.42.42,0,0,1,.1.08.34.34,0,0,1,.06.08l.13.14a.24.24,0,0,0,.11.08l.32.09L2.88,10a1.63,1.63,0,0,1-.38.06,1.6,1.6,0,0,1-.38,0,2.67,2.67,0,0,1-.7-.25c.24,0,.5.09.72.11a2.63,2.63,0,0,0,.35,0l.18,0a.47.47,0,0,0,.16,0V10a.39.39,0,0,1-.21-.13,1.1,1.1,0,0,1-.13-.16.22.22,0,0,0,0-.06l-.06,0L2.21,9.5A4.18,4.18,0,0,0,1.52,9.12Z" transform="translate(0.06 -3.89)"/><path d="M2.17,10.65l.16,0,.16,0h.18a2.21,2.21,0,0,1,.34,0l.16,0a.39.39,0,0,1-.14.08,1.16,1.16,0,0,1-.35.06.79.79,0,0,1-.19,0l-.16,0A.59.59,0,0,1,2.17,10.65Z" transform="translate(0.06 -3.89)"/><path d="M2.73,10.45A1.48,1.48,0,0,1,3,10.37a1.82,1.82,0,0,1,.32,0,3,3,0,0,1,.37,0l.18,0,.18,0a2.75,2.75,0,0,1,.29.11,1.45,1.45,0,0,1,.26.16l-.08,0-.21,0L4,10.57l-.34,0-.34,0-.3,0-.22,0Z" transform="translate(0.06 -3.89)"/><path d="M3.05,11.06l.06,0,.14,0,.42-.14.13,0,.13,0a1,1,0,0,1,.22,0,.93.93,0,0,1,.21,0l-.21.06L4,11l-.22.06a1.29,1.29,0,0,1-.24,0,.53.53,0,0,1-.22,0,.38.38,0,0,1-.16,0S3.05,11.06,3.05,11.06Z" transform="translate(0.06 -3.89)"/><path d="M3.55,10.78a1,1,0,0,1,.27-.06l.29,0a2.28,2.28,0,0,1,.32,0l.32,0a1.37,1.37,0,0,1,.27.08l.26.11H5l-.27,0-.32,0-.32,0-.27,0Z" transform="translate(0.06 -3.89)"/><path d="M4.62,11.15l.26,0,.24,0A1.51,1.51,0,0,0,5.37,11a1.62,1.62,0,0,0,.24-.11l.22-.11a1.12,1.12,0,0,1,.24-.08,1.46,1.46,0,0,1-.18.17l-.19.16a1.11,1.11,0,0,1-.27.16.89.89,0,0,1-.58,0A1.15,1.15,0,0,1,4.62,11.15Z" transform="translate(0.06 -3.89)"/><path d="M5,10.73l.26,0a3.83,3.83,0,0,1,.56,0,3.84,3.84,0,0,1,.54.14,1.11,1.11,0,0,1,.24.11,1.14,1.14,0,0,1-.26,0,3.61,3.61,0,0,1-.54-.06,4,4,0,0,1-.54-.13A1.12,1.12,0,0,1,5,10.73Z" transform="translate(0.06 -3.89)"/><path d="M6.26,11.06h.35a.79.79,0,0,0,.19,0L7,11l.18,0,.13,0h0a.79.79,0,0,1-.13.13L7,11.2a.23.23,0,0,1-.11,0,.28.28,0,0,1-.11,0H6.6a.91.91,0,0,1-.19-.06.34.34,0,0,1-.11-.06C6.28,11.06,6.26,11.06,6.26,11.06Z" transform="translate(0.06 -3.89)"/><path d="M7.61,10.84a.63.63,0,0,1,.16,0,1.31,1.31,0,0,1,.35,0,.93.93,0,0,1,.34.11A.59.59,0,0,1,8.6,11l-.16,0-.35,0-.18,0-.16,0Z" transform="translate(0.06 -3.89)"/><path d="M7.35,11.15l.3,0h.65l.65,0,.21,0,.08,0a.11.11,0,0,1-.06,0A.63.63,0,0,1,9,11.3a3,3,0,0,1-.67,0c-.24,0-.48,0-.67-.08Z" transform="translate(0.06 -3.89)"/><path d="M8.48,10.76a.93.93,0,0,1,.19,0,.79.79,0,0,1,.19,0l.22,0a1.21,1.21,0,0,1,.38.14.68.68,0,0,1,.16.11H9.44l-.38,0-.21,0-.18,0Z" transform="translate(0.06 -3.89)"/><path d="M9.15,11.14A.93.93,0,0,1,9.33,11a1.81,1.81,0,0,1,.38-.13,2,2,0,0,1,.42,0l.19,0a.93.93,0,0,1-.18.09,1.81,1.81,0,0,1-.38.13,2,2,0,0,1-.42,0Z" transform="translate(0.06 -3.89)"/><path d="M9.51,10.65l.22-.06a1.71,1.71,0,0,1,.51,0,1.37,1.37,0,0,1,.27.06l.22.11.13.11s0,0,0,0l-.22-.06-.21,0a1.26,1.26,0,0,0-.26,0l-.48,0Z" transform="translate(0.06 -3.89)"/><path d="M10.51,11.12l.06,0,.14,0,.21,0,.22,0,.22-.06a1.35,1.35,0,0,0,.19-.06l.21,0a.7.7,0,0,1-.14.16.55.55,0,0,1-.19.11l-.11,0a.3.3,0,0,1-.13,0l-.26,0a1,1,0,0,1-.22,0A.93.93,0,0,1,10.51,11.12Z" transform="translate(0.06 -3.89)"/><path d="M10.7,10.56a.63.63,0,0,1,.26,0,.79.79,0,0,1,.27,0l.3.06.14,0,.13.06.22.14a.61.61,0,0,1,.18.19l-.06,0L12,10.93a2.11,2.11,0,0,0-.24-.08l-.27-.09-.27-.08-.24-.06-.18,0A.09.09,0,0,1,10.7,10.56Z" transform="translate(0.06 -3.89)"/><path d="M12,10.59l.16,0a1.45,1.45,0,0,1,.35,0,1.22,1.22,0,0,1,.32.13.72.72,0,0,1,.13.09.44.44,0,0,1-.16,0,1.33,1.33,0,0,1-.34,0,2.42,2.42,0,0,1-.32-.11A.66.66,0,0,1,12,10.59Z" transform="translate(0.06 -3.89)"/><path d="M12.46,11.14a.27.27,0,0,1,0-.06,1.15,1.15,0,0,1,.14-.16,1.57,1.57,0,0,1,.24-.19,1.16,1.16,0,0,1,.32-.14,2.59,2.59,0,0,1,.34-.08,1,1,0,0,1,.3,0,1.1,1.1,0,0,1,.21.06l.06,0-.08,0h-.19l-.27,0a.47.47,0,0,1-.14,0l-.16,0a2.93,2.93,0,0,0-.54.24Z" transform="translate(0.06 -3.89)"/><path d="M13.56,11.11l0,0,.11,0,.14,0L14,11l.16,0,.14,0,.16,0a.54.54,0,0,1-.1.13l-.13.09s0,0-.08,0l-.1,0a.79.79,0,0,1-.19,0,.48.48,0,0,1-.16,0A.4.4,0,0,1,13.56,11.11Z" transform="translate(0.06 -3.89)"/><path d="M13.5,10.81a.89.89,0,0,1,.19-.08l.43-.09a2.12,2.12,0,0,1,.45,0l.21,0a.61.61,0,0,1-.19.09l-.43.09a2.12,2.12,0,0,1-.45,0A.93.93,0,0,1,13.5,10.81Z" transform="translate(0.06 -3.89)"/><path d="M13.5,10l.19,0a.79.79,0,0,1,.19,0,1,1,0,0,1,.21.06l.1,0a.33.33,0,0,1,.1.06.61.61,0,0,1,.14.14.3.3,0,0,1,0,.14v0a.49.49,0,0,0-.13-.11l-.14-.08-.1,0a.23.23,0,0,0-.1,0l-.37-.16A.91.91,0,0,0,13.5,10Z" transform="translate(0.06 -3.89)"/><path d="M13.37,10.35l.27,0h.72a.24.24,0,0,0,.11,0,.7.7,0,0,1,.11-.06.4.4,0,0,1,.11-.06l.24-.13a2.38,2.38,0,0,1-.16.2l-.08.09-.11.11a.31.31,0,0,1-.19,0h-.16a2.17,2.17,0,0,1-.32,0,1.37,1.37,0,0,1-.27-.06A1.4,1.4,0,0,1,13.37,10.35Z" transform="translate(0.06 -3.89)"/><path d="M13.66,9.75l.19,0a1.31,1.31,0,0,1,.4.06l.1,0,.11,0,0,0,0,0s0,0,0,0a.22.22,0,0,1,0,.09.53.53,0,0,1,0,.14v0l0,0-.08-.11,0,0,0,0h0l0,0-.18,0a1.62,1.62,0,0,1-.37-.14A.59.59,0,0,1,13.66,9.75Z" transform="translate(0.06 -3.89)"/><path d="M13.8,9.33,14,9.27a.7.7,0,0,1,.43,0,.7.7,0,0,0,.11.06.19.19,0,0,1,.08.08.87.87,0,0,1,.11.14l.11.14h0a.26.26,0,0,1-.13,0l-.16-.09-.08,0-.08,0A1.56,1.56,0,0,0,14,9.39,1,1,0,0,1,13.8,9.33Z" transform="translate(0.06 -3.89)"/><path d="M12.33,10.23l.06,0,.14,0,.1,0a.23.23,0,0,1,.1,0l.19-.09.19-.11a.16.16,0,0,0,.08-.06l.08-.06.11-.09s0,0,0,0a.24.24,0,0,1,0,.06.3.3,0,0,1,0,.14.7.7,0,0,1-.13.17.42.42,0,0,1-.1.08l-.11.08-.11,0a.3.3,0,0,1-.13,0,1.15,1.15,0,0,1-.22,0,.41.41,0,0,1-.16,0C12.35,10.24,12.33,10.23,12.33,10.23Z" transform="translate(0.06 -3.89)"/><path d="M13,10.41l.06-.08a.57.57,0,0,1,.16-.11.43.43,0,0,1,.19,0h.11a.44.44,0,0,1,0,.09.43.43,0,0,1-.16.13.32.32,0,0,1-.21,0Z" transform="translate(0.06 -3.89)"/><path d="M11.87,9.19l0,0a.41.41,0,0,1,.16,0,.64.64,0,0,1,.22,0,.26.26,0,0,1,.11.06l.1.08a2.1,2.1,0,0,1,.27.36.7.7,0,0,1,.08.19,1.56,1.56,0,0,1-.18-.13,1.16,1.16,0,0,1-.16-.14l-.16-.16-.08-.08-.08-.06L12,9.2Z" transform="translate(0.06 -3.89)"/><path d="M12.91,9.17a.44.44,0,0,1,.16,0l.14,0,.16,0a1.21,1.21,0,0,1,.29.11.41.41,0,0,1,.13.08.39.39,0,0,1-.16,0,.76.76,0,0,1-.32,0A.7.7,0,0,1,13,9.27Z" transform="translate(0.06 -3.89)"/><path d="M13.05,8.7h.22l.48,0a1.4,1.4,0,0,1,.26,0,1.1,1.1,0,0,1,.24,0l.16.06a.12.12,0,0,1,0,0,.87.87,0,0,0-.22,0l-.22,0a1.48,1.48,0,0,1-.27,0,1.43,1.43,0,0,1-.27,0l-.22-.06Z" transform="translate(0.06 -3.89)"/><path d="M12.33,8.84l.18,0a1.42,1.42,0,0,1,.37,0,2,2,0,0,1,.35.06l.16.06a.63.63,0,0,1-.16,0,2.46,2.46,0,0,1-.37,0,2.13,2.13,0,0,1-.37-.08Z" transform="translate(0.06 -3.89)"/><path d="M12.65,8.24a1.31,1.31,0,0,1,.26,0,2.31,2.31,0,0,1,.56,0l.3.08a1.25,1.25,0,0,1,.26.11.74.74,0,0,1,.21.16,1.31,1.31,0,0,0-.26,0c-.14,0-.34,0-.54-.09l-.54-.11A1.81,1.81,0,0,1,12.65,8.24Z" transform="translate(0.06 -3.89)"/><path d="M12.88,7.76l0,0a.63.63,0,0,1,.14-.06.86.86,0,0,1,.21,0,.52.52,0,0,1,.22,0,.81.81,0,0,1,.21.08,1.89,1.89,0,0,1,.18.08l.18.08a.41.41,0,0,1-.19,0,.81.81,0,0,1-.19,0l-.21,0a2.56,2.56,0,0,0-.37-.09A1.28,1.28,0,0,1,12.88,7.76Z" transform="translate(0.06 -3.89)"/><path d="M5,4.56,5,4.6a1.35,1.35,0,0,1-.19.06,1.48,1.48,0,0,1-.27,0,1.76,1.76,0,0,0-.29,0l-.13,0L4,4.75l0,0a1.76,1.76,0,0,1-.22.14A.39.39,0,0,1,3.56,5L3.48,5a.1.1,0,0,0,.06,0,.58.58,0,0,0,.14-.11l.18-.19.06,0s0,0,.08,0a.58.58,0,0,1,.18-.06.67.67,0,0,1,.18,0,.55.55,0,0,1,.16,0l.26,0,.18,0Z" transform="translate(0.06 -3.89)"/><path d="M4.22,5.29l-.08,0a.79.79,0,0,1-.21,0H3.66a.38.38,0,0,0-.13,0l-.14.06-.08,0-.08,0-.18,0a2,2,0,0,1-.3,0l-.21,0-.08,0h.08l.19,0a2.09,2.09,0,0,0,.56-.14l.16-.06.18,0a1.36,1.36,0,0,1,.3,0,1.67,1.67,0,0,0,.19,0Z" transform="translate(0.06 -3.89)"/><path d="M3.69,5.88v0s0,0,0,0L3.56,6,3.45,6a3,3,0,0,1-.56,0,2,2,0,0,1-.3,0,1.6,1.6,0,0,1-.27,0,.27.27,0,0,1-.18-.09s0-.06,0-.06l.06,0a.33.33,0,0,0,.18,0l.26,0a1.86,1.86,0,0,1,.3,0,2.85,2.85,0,0,1,.56,0l.18,0s0,0,.06,0Z" transform="translate(0.06 -3.89)"/><path d="M3.1,6.47l-.19.06-.38.11a1,1,0,0,0-.21.06.48.48,0,0,0-.16.06s-.08,0-.1.08l0,0a.09.09,0,0,1,0-.06.41.41,0,0,1,0-.16.32.32,0,0,1,.18-.14.93.93,0,0,1,.22-.08l.22,0h.21A.93.93,0,0,1,3.1,6.47Z" transform="translate(0.06 -3.89)"/><path d="M3.15,7.08H3.07l-.19.09-.24.19a3.5,3.5,0,0,0-.29.22,4.77,4.77,0,0,0-.5.42,1.48,1.48,0,0,1-.16.16.19.19,0,0,1-.06.06.27.27,0,0,1,0-.08,1.07,1.07,0,0,1,.1-.2,2.14,2.14,0,0,1,.19-.27,1,1,0,0,1,.13-.13l.14-.13a3.42,3.42,0,0,1,.3-.2,1.22,1.22,0,0,1,.29-.14A.46.46,0,0,1,3,7Z" transform="translate(0.06 -3.89)"/><path d="M2.38,8.42a.93.93,0,0,1-.18.09,1.47,1.47,0,0,1-.42.09,1.14,1.14,0,0,1-.42,0l-.19-.06a.93.93,0,0,1,.19,0,2.78,2.78,0,0,1,.4,0L2,8.4h.19A.46.46,0,0,1,2.38,8.42Z" transform="translate(0.06 -3.89)"/><path d="M2.27,8.89,2.11,9,2,9l-.1,0h-.1l0,.06-.1.14-.11.13V9.17a.68.68,0,0,1,0-.16s0-.06,0-.09a.29.29,0,0,1,.14-.09h.11a.21.21,0,0,1,.1,0,.48.48,0,0,1,.16,0A.28.28,0,0,1,2.27,8.89Z" transform="translate(0.06 -3.89)"/><path d="M2.91,9.25a.46.46,0,0,1-.16.14l-.19.09a1.35,1.35,0,0,1-.24.06,1.5,1.5,0,0,1-.45,0l-.21,0,.19-.09a1.56,1.56,0,0,1,.43-.11l.43-.08Z" transform="translate(0.06 -3.89)"/><path d="M2.46,10a.79.79,0,0,1,0,.14.49.49,0,0,1-.18.25l-.08,0a.18.18,0,0,0-.1,0,.44.44,0,0,1-.14,0,.39.39,0,0,1-.13,0l.11-.06.11,0,0,0,0,0a.42.42,0,0,0,.1-.08l.1-.08Z" transform="translate(0.06 -3.89)"/><path d="M3.69,10l-.13.11-.14.08a.58.58,0,0,1-.18.06.91.91,0,0,1-.35,0,.63.63,0,0,1-.16,0l.14-.06L3.2,10a.69.69,0,0,1,.18,0,.55.55,0,0,1,.16,0Z" transform="translate(0.06 -3.89)"/><path d="M3.56,9.36a.59.59,0,0,1-.14.09,1.15,1.15,0,0,1-.35.11,1.43,1.43,0,0,1-.37,0,1,1,0,0,1-.18,0l.16-.06A1.93,1.93,0,0,1,3,9.38l.19,0H3.4A.44.44,0,0,1,3.56,9.36Z" transform="translate(0.06 -3.89)"/><path d="M2.94,8.37l0,0a.25.25,0,0,1-.1.06l-.13.09a.43.43,0,0,0-.13.11l-.13.11s-.08.08-.11.09L2.19,9a.6.6,0,0,1,0-.17,1.45,1.45,0,0,1,.08-.16.28.28,0,0,1,.06-.08.16.16,0,0,1,.08-.06.38.38,0,0,1,.18-.09.37.37,0,0,1,.18,0A.39.39,0,0,1,2.94,8.37Z" transform="translate(0.06 -3.89)"/><path d="M3.05,7.76,3,7.87A1.19,1.19,0,0,1,2.77,8c-.08,0-.18.08-.24.11l-.13,0a.26.26,0,0,1,.06-.11,1.22,1.22,0,0,1,.21-.19.84.84,0,0,1,.26-.09Z" transform="translate(0.06 -3.89)"/><path d="M4,8.92l0,0A.38.38,0,0,1,3.79,9a1.06,1.06,0,0,1-.24.06l-.29,0-.51,0a.61.61,0,0,1-.18,0H2.51A.59.59,0,0,1,2.73,9,1.79,1.79,0,0,1,3.26,9h.51a.61.61,0,0,0,.18,0A.08.08,0,0,1,4,8.92Z" transform="translate(0.06 -3.89)"/><path d="M4.22,9.38a.43.43,0,0,1-.18,0,2.52,2.52,0,0,1-.37,0,2,2,0,0,1-.35-.06L3.16,9.3a.63.63,0,0,1,.16,0,2.46,2.46,0,0,1,.37,0,1.26,1.26,0,0,1,.37.08A.62.62,0,0,1,4.22,9.38Z" transform="translate(0.06 -3.89)"/><path d="M4.71,9.82l-.21.06a2.1,2.1,0,0,1-.46,0,3.78,3.78,0,0,1-.46,0l-.21,0,0,0a.38.38,0,0,1,.16,0,2.1,2.1,0,0,1,.46,0,3.78,3.78,0,0,1,.46,0Z" transform="translate(0.06 -3.89)"/><path d="M6,4l0,0,.11,0a.33.33,0,0,1,.18,0A.54.54,0,0,1,6.55,4s0,0,.08.08,0,.06,0,.08a.55.55,0,0,1,.06.14.69.69,0,0,0,.08.14h0a.2.2,0,0,1-.11-.06l-.13-.11L6.47,4.2l-.06,0A1,1,0,0,0,6.15,4Z" transform="translate(0.06 -3.89)"/><path d="M7.14,4.06a.48.48,0,0,1,.08.11.59.59,0,0,1,.06.25.63.63,0,0,1,0,.25s0,0,0,0v0h0s-.08,0,0,0h0a0,0,0,0,0,0,0,.05.05,0,0,1,0,0h0v0a0,0,0,0,0,0,0s0,0,0,0a1,1,0,0,1-.06-.25.63.63,0,0,1,0-.25Z" transform="translate(0.06 -3.89)"/><path d="M6.65,4.83l-.29,0-.61,0a4.23,4.23,0,0,1-.59-.13.27.27,0,0,0-.18,0,.07.07,0,0,0-.06,0s0,0,0-.06a.4.4,0,0,1,.21,0l.61,0a4.23,4.23,0,0,1,.59.13Z" transform="translate(0.06 -3.89)"/><path d="M5.8,5.18l-.21,0-.43,0H4.84a.12.12,0,0,0-.08,0l-.13,0,0,0a.24.24,0,0,1,0-.06.36.36,0,0,1,.11-.13l.1,0,.11,0a1.25,1.25,0,0,1,.24,0A1.23,1.23,0,0,1,5.4,5a.8.8,0,0,1,.21.06A.84.84,0,0,1,5.8,5.18Z" transform="translate(0.06 -3.89)"/><path d="M5.5,4.89l-.32,0a2.63,2.63,0,0,0-.32,0L4.68,5l-.18,0a1.2,1.2,0,0,0-.32.16c-.1.06-.19.11-.27.17a1.45,1.45,0,0,1-.29.16s.08-.11.21-.25a.88.88,0,0,1,.26-.22,1.25,1.25,0,0,1,.35-.19.85.85,0,0,1,.19,0,.79.79,0,0,1,.19,0,2.18,2.18,0,0,1,.34,0A2.26,2.26,0,0,1,5.5,4.89Z" transform="translate(0.06 -3.89)"/><path d="M6.06,5.63,5.7,5.7l-.37,0-.21,0a.79.79,0,0,0-.19,0,.57.57,0,0,0-.14.06,1,1,0,0,0-.14.13l-.26.25a3.45,3.45,0,0,1-.27.22,2.36,2.36,0,0,1,.19-.3c.06-.08.13-.19.21-.28a1.28,1.28,0,0,1,.14-.16.59.59,0,0,1,.22-.11,1.15,1.15,0,0,1,.22,0,.92.92,0,0,1,.21,0,2.66,2.66,0,0,1,.37,0A1.7,1.7,0,0,1,6.06,5.63Z" transform="translate(0.06 -3.89)"/><path d="M4.39,5.87,4.31,6c-.06.09-.14.22-.24.35a1.49,1.49,0,0,1-.16.16.6.6,0,0,1-.19.11.27.27,0,0,1-.16,0l0,0,0,0,.11-.06a.9.9,0,0,0,.11-.13l.14-.17A2.42,2.42,0,0,1,4.23,6,.71.71,0,0,1,4.39,5.87Z" transform="translate(0.06 -3.89)"/><path d="M4.73,6.55l-.22.13L4,6.89,3.69,7a2.11,2.11,0,0,0-.24.08.56.56,0,0,0-.14.09l0,0a.27.27,0,0,1,0-.08A.28.28,0,0,1,3.4,7a.87.87,0,0,1,.24-.14c.08,0,.19-.08.29-.13a2.09,2.09,0,0,1,.56-.14Z" transform="translate(0.06 -3.89)"/><path d="M4.43,7.1l-.21.09-.43.22c-.16.08-.32.17-.45.22l-.14.06a.06.06,0,0,0,0,0,.07.07,0,0,1,0-.06s.06-.08.11-.14a1.47,1.47,0,0,1,.42-.3,1.79,1.79,0,0,1,.26-.11.72.72,0,0,1,.24,0h.18Z" transform="translate(0.06 -3.89)"/><path d="M4.12,7.8l-.18.09A1.89,1.89,0,0,1,3.77,8l-.21.08-.21.08a.91.91,0,0,1-.19.06L3,8.26A.92.92,0,0,1,3.1,8.1L3.26,8a1.33,1.33,0,0,1,.21-.11l.22-.06.21,0A1.28,1.28,0,0,1,4.12,7.8Z" transform="translate(0.06 -3.89)"/><path d="M4.2,8.37,4,8.4l-.14,0-.18,0a.69.69,0,0,0-.18,0,.55.55,0,0,1-.16,0l-.16,0a.3.3,0,0,1,.11-.11.42.42,0,0,1,.14-.08.43.43,0,0,1,.19,0,.78.78,0,0,1,.19,0,.48.48,0,0,1,.16,0A.31.31,0,0,1,4.2,8.37Z" transform="translate(0.06 -3.89)"/><path d="M4.78,8.72a.17.17,0,0,1-.06.08.31.31,0,0,1-.21.08.36.36,0,0,1-.22,0,.4.4,0,0,1-.1-.06l.1,0a.68.68,0,0,1,.19,0h.19Z" transform="translate(0.06 -3.89)"/><path d="M7.29,3.93a1.24,1.24,0,0,1,.24,0A1.05,1.05,0,0,1,7.77,4a.35.35,0,0,1,.13.08A.43.43,0,0,1,8,4.25a.92.92,0,0,1,.06.13l0,.06,0,0a1,1,0,0,0,.11.19l.13.19a.7.7,0,0,1-.21-.13A.91.91,0,0,1,8,4.56a.22.22,0,0,1,0-.06.08.08,0,0,1,0-.06.68.68,0,0,0-.06-.11.5.5,0,0,0-.16-.16L7.49,4Z" transform="translate(0.06 -3.89)"/><path d="M7.61,4.47a.33.33,0,0,0,0,.16l0,0,.06,0a.88.88,0,0,1,.14.11,2.31,2.31,0,0,1,.29.25l.11.14a.79.79,0,0,1-.18-.06A2.52,2.52,0,0,1,7.8,5l-.16-.14a.33.33,0,0,1-.06-.09.2.2,0,0,1,0-.09.34.34,0,0,1,0-.14S7.61,4.47,7.61,4.47Z" transform="translate(0.06 -3.89)"/><path d="M8.42,4.26l.24,0a2,2,0,0,1,.48.14,2.22,2.22,0,0,1,.43.27.6.6,0,0,1,.16.16,1.35,1.35,0,0,1-.22-.06,4.73,4.73,0,0,1-.45-.19l-.24-.11c-.08,0-.14-.08-.21-.11A1.38,1.38,0,0,1,8.42,4.26Z" transform="translate(0.06 -3.89)"/><path d="M8.48,4.55l.16,0A1,1,0,0,1,9,4.67a1.33,1.33,0,0,1,.27.19.54.54,0,0,1,.1.13.57.57,0,0,1-.16,0,1,1,0,0,1-.3-.13,2,2,0,0,1-.27-.17A.63.63,0,0,1,8.48,4.55Z" transform="translate(0.06 -3.89)"/><path d="M10,4.55a.63.63,0,0,1,.19,0,1.38,1.38,0,0,1,.4.08l.21.08a.45.45,0,0,1,.18.13A.22.22,0,0,1,11,5a.07.07,0,0,1,0,0s0,0,0,0a.15.15,0,0,0-.1-.06l-.16,0-.21,0a1.6,1.6,0,0,1-.37-.16A.82.82,0,0,1,10,4.55Z" transform="translate(0.06 -3.89)"/><path d="M9.35,4.34a.58.58,0,0,1,.19-.08.82.82,0,0,1,.21,0,1.23,1.23,0,0,1,.24,0,1.35,1.35,0,0,1,.24.06l.19.09.06,0,0,0a0,0,0,0,1,0,0,0,0,0,0,1,0,0h0s0,0,0,0h-.06l-.08,0L10,4.45l-.22,0-.19,0Z" transform="translate(0.06 -3.89)"/><path d="M8.58,4l.18,0a.73.73,0,0,1,.18,0l.19,0a1.33,1.33,0,0,1,.34.19.79.79,0,0,1,.13.13.63.63,0,0,1-.18,0,2.2,2.2,0,0,1-.35-.11l-.18-.06-.16-.06Z" transform="translate(0.06 -3.89)"/><path d="M8,4A.43.43,0,0,1,8.2,4h.18a.56.56,0,0,1,.21,0,1.32,1.32,0,0,1,.34.17A.43.43,0,0,1,9,4.36a.63.63,0,0,1-.18,0l-.16,0-.18,0a.58.58,0,0,1-.18-.06l-.16-.06Z" transform="translate(0.06 -3.89)"/><path d="M9.89,5.13,10,5.07A2,2,0,0,1,10.42,5a1.3,1.3,0,0,1,.37,0l.16.06a.63.63,0,0,1-.16,0,2.11,2.11,0,0,1-.35,0,2.24,2.24,0,0,1-.35,0A.65.65,0,0,1,9.89,5.13Z" transform="translate(0.06 -3.89)"/><path d="M9.94,4.86l.16-.06a.55.55,0,0,1,.16,0,.79.79,0,0,1,.19,0,1.35,1.35,0,0,1,.34.13.49.49,0,0,1,.13.11h-.16l-.16,0a.69.69,0,0,1-.18,0l-.18,0-.16,0A.65.65,0,0,1,9.94,4.86Z" transform="translate(0.06 -3.89)"/><path d="M11,5.41l.18,0a1.63,1.63,0,0,1,.38,0l.19,0a.4.4,0,0,1,.11.06l.06.08s0,.08,0,.09l0,0a.07.07,0,0,1,0,0,.2.2,0,0,1-.13-.06l-.06,0h-.06l-.21,0a2.07,2.07,0,0,1-.37-.09A.55.55,0,0,0,11,5.41Z" transform="translate(0.06 -3.89)"/><path d="M11.28,5.26l0,0,.11,0a.33.33,0,0,1,.18,0,1,1,0,0,1,.19.08l.08.06s0,0,.06.06l.1.14a.33.33,0,0,1,0,.16l-.14-.08-.13-.09-.06,0-.06,0a.89.89,0,0,1-.13-.08l-.13,0Z" transform="translate(0.06 -3.89)"/><path d="M11.47,5.79l.22,0,.22,0,.26.06.26.08.22.06.21.08a.84.84,0,0,1-.24,0,1.94,1.94,0,0,1-.5-.06L11.87,6c-.08,0-.14-.08-.21-.11A.61.61,0,0,1,11.47,5.79Z" transform="translate(0.06 -3.89)"/><path d="M12,6.53h.14a.45.45,0,0,1,.14,0l.16,0a1.53,1.53,0,0,1,.29.08l.13.06a.65.65,0,0,1-.14,0,1.08,1.08,0,0,1-.32,0l-.16,0a.35.35,0,0,1-.13-.08Z" transform="translate(0.06 -3.89)"/><path d="M12.35,7l.16-.06a1.45,1.45,0,0,1,.73,0A.4.4,0,0,1,13.4,7L13.24,7a1.45,1.45,0,0,1-.73,0Z" transform="translate(0.06 -3.89)"/><path d="M12.48,6.4l.21,0,.21,0a1.35,1.35,0,0,1,.24.06.38.38,0,0,1,.14.09.25.25,0,0,1,0,.14s0,.06,0,.09,0,.06,0,.09,0,.19,0,.19a.41.41,0,0,1-.16-.14.52.52,0,0,1,0-.09l0-.11,0-.06s0,0,0,0l-.21-.08-.19-.08Z" transform="translate(0.06 -3.89)"/><path d="M13.1,7.41a.37.37,0,0,1,.14,0l.29.08a1.79,1.79,0,0,1,.26.16.35.35,0,0,1,.1.11.37.37,0,0,1-.14,0l-.29-.08a1.79,1.79,0,0,1-.26-.16A.82.82,0,0,1,13.1,7.41Z" transform="translate(0.06 -3.89)"/><path d="M12.51,7.19a.79.79,0,0,1,.22,0,2.43,2.43,0,0,1,.48,0,2,2,0,0,1,.48.09.84.84,0,0,1,.21.08.79.79,0,0,1-.22,0,2.43,2.43,0,0,1-.48,0,2,2,0,0,1-.48-.09A1.37,1.37,0,0,1,12.51,7.19Z" transform="translate(0.06 -3.89)"/><path d="M11.79,7.1A.63.63,0,0,1,12,7L12.27,7l.08,0,.06,0,.11-.08a.35.35,0,0,0,.1-.11.25.25,0,0,1,0,.17.32.32,0,0,1-.11.16l-.08.06-.1,0a.78.78,0,0,1-.38,0Z" transform="translate(0.06 -3.89)"/><path d="M11.6,6.84a.57.57,0,0,1,.19-.11A.8.8,0,0,1,12,6.67a1.26,1.26,0,0,1,.26,0h.13l.13,0a.93.93,0,0,1,.22.06.84.84,0,0,1,.19.09l-.21,0h-.89Z" transform="translate(0.06 -3.89)"/><path d="M11.06,6.33a.41.41,0,0,1,.18-.06.81.81,0,0,1,.19,0,1.15,1.15,0,0,1,.22,0l.22.06a1.89,1.89,0,0,1,.18.08.62.62,0,0,1,.14.13L12,6.5l-.18,0-.21,0-.21,0-.18,0Z" transform="translate(0.06 -3.89)"/><path d="M10.72,5.71a.9.9,0,0,1,.26,0,1.45,1.45,0,0,1,.54.11.89.89,0,0,1,.27.14.68.68,0,0,1,.19.17.59.59,0,0,1,.1.16.17.17,0,0,0,0,.06l-.06,0a.56.56,0,0,0-.14-.09A4.25,4.25,0,0,0,11.44,6l-.13,0-.13,0L11,5.79Z" transform="translate(0.06 -3.89)"/><path d="M9.84,5.52l.06,0,.16,0,.21.08.24.08.24.08.21.06.22.06A1.31,1.31,0,0,1,11,6h-.24l-.13,0-.13,0a1.79,1.79,0,0,1-.26-.11A1,1,0,0,1,10,5.7.7.7,0,0,1,9.84,5.52Z" transform="translate(0.06 -3.89)"/><path d="M10.11,5.33a.63.63,0,0,1,.19,0,.81.81,0,0,1,.19,0l.21.08a1.21,1.21,0,0,1,.35.22l.13.14-.19,0a2.19,2.19,0,0,1-.37-.14l-.19-.09-.16-.09Z" transform="translate(0.06 -3.89)"/><path d="M7,5.13a1,1,0,0,1,.29,0,3.36,3.36,0,0,1,.59.13,2.29,2.29,0,0,1,.56.25,1.71,1.71,0,0,1,.24.16l-.27,0c-.16,0-.37-.09-.58-.16a2.35,2.35,0,0,1-.3-.11,1,1,0,0,1-.26-.11A1.4,1.4,0,0,1,7,5.13Z" transform="translate(0.06 -3.89)"/><path d="M6.12,5.15l.27,0c.16,0,.37.11.58.19a4.31,4.31,0,0,1,.54.27,1.09,1.09,0,0,1,.22.16l-.27,0c-.16,0-.37-.11-.58-.19a4.31,4.31,0,0,1-.54-.27A1.09,1.09,0,0,1,6.12,5.15Z" transform="translate(0.06 -3.89)"/><path d="M5.53,5.88l.16-.06a1.33,1.33,0,0,1,.7,0l.11,0s0,0,0,0a.12.12,0,0,1,0,0,.18.18,0,0,1-.13,0,1.33,1.33,0,0,1-.7,0A.63.63,0,0,1,5.53,5.88Z" transform="translate(0.06 -3.89)"/><path d="M5,6.07l.24,0,.24,0,.27.06L6,6.29l.24,0,.24.06a1.3,1.3,0,0,1-.24,0,.7.7,0,0,1-.26,0,.45.45,0,0,1-.14,0,.47.47,0,0,1-.14,0,1.37,1.37,0,0,1-.27-.08,1,1,0,0,1-.22-.11A.8.8,0,0,1,5,6.07Z" transform="translate(0.06 -3.89)"/><path d="M5.1,6.61a.39.39,0,0,1,.13,0l.26,0a.62.62,0,0,1,.26,0,.39.39,0,0,1,.13,0l-.11.06a.81.81,0,0,1-.54,0Z" transform="translate(0.06 -3.89)"/><path d="M4.57,6.91a1.14,1.14,0,0,1,.26,0l.26,0,.3,0L5.94,7A1.31,1.31,0,0,1,6.2,7l-.26.06a2.28,2.28,0,0,1-.58,0l-.3,0A1,1,0,0,1,4.81,7,.78.78,0,0,1,4.57,6.91Z" transform="translate(0.06 -3.89)"/><path d="M4.71,7.57l.19-.06a1.72,1.72,0,0,1,.43,0,1.72,1.72,0,0,1,.43,0A.57.57,0,0,1,6,7.57l-.19.06a1.72,1.72,0,0,1-.43,0,1.72,1.72,0,0,1-.43,0Z" transform="translate(0.06 -3.89)"/><path d="M4.11,7.33l0,0,.14,0a2.8,2.8,0,0,1,.43-.06,1.78,1.78,0,0,1,.43,0,.93.93,0,0,1,.19,0l-.19.06a1.72,1.72,0,0,1-.43,0,3.23,3.23,0,0,1-.43,0Z" transform="translate(0.06 -3.89)"/><path d="M4.68,8s0,0,0,0a.65.65,0,0,0,.18,0,3.14,3.14,0,0,1,.58,0,3,3,0,0,1,.58,0,.37.37,0,0,0,.18,0,0,0,0,0,0,0,0V8l0,0a.12.12,0,0,1,0,.06.1.1,0,0,1-.1,0l-.11,0a3.14,3.14,0,0,1-.58,0,3,3,0,0,1-.58,0c-.08,0-.16,0-.19-.08s0,0,0-.06Z" transform="translate(0.06 -3.89)"/><path d="M4.33,7.87a.93.93,0,0,1,.19,0l.19,0a.92.92,0,0,1,.21,0,3.67,3.67,0,0,1,.4,0l.19,0a.93.93,0,0,1-.18.09A1.47,1.47,0,0,1,4.92,8H4.7a.7.7,0,0,1-.19,0A.57.57,0,0,1,4.33,7.87Z" transform="translate(0.06 -3.89)"/><path d="M4.31,8.53l.22-.06a2.3,2.3,0,0,1,.5,0,2.3,2.3,0,0,1,.5,0,.77.77,0,0,1,.22.06l-.22.06a2.3,2.3,0,0,1-.5,0,2.3,2.3,0,0,1-.5,0Z" transform="translate(0.06 -3.89)"/><path d="M4.7,9.53a1.9,1.9,0,0,1,.06-.28A2.59,2.59,0,0,1,4.84,9l.1-.31c0-.11.06-.22.1-.31s0-.2.06-.28.06-.28.06-.28a.19.19,0,0,1,0,.08.72.72,0,0,1,0,.22,2.29,2.29,0,0,1,0,.31,2.7,2.7,0,0,1-.08.35A2.81,2.81,0,0,1,5,9.06c0,.09-.1.19-.14.27A1.61,1.61,0,0,1,4.7,9.53Z" transform="translate(0.06 -3.89)"/><path d="M6.38,7.08l.06,0a.71.71,0,0,1,.14.11,1.16,1.16,0,0,1,.16.2.85.85,0,0,1,.1.28.48.48,0,0,1,0,.14.17.17,0,0,0,0,.09s0,0,0,0l0,0s0,0,.08.08l.13.13a.1.1,0,0,1,0,.06l-.06,0L7,8.21l-.11-.06-.06,0a.22.22,0,0,1,0-.06.33.33,0,0,1-.06-.16s0-.09,0-.14a2.22,2.22,0,0,0-.14-.46Z" transform="translate(0.06 -3.89)"/><path d="M6.85,6.53l0,.06A.43.43,0,0,0,7,6.73l.1.08.11.08A1.38,1.38,0,0,0,7.46,7l.27.14L8,7.28a.12.12,0,0,0,.08,0l0,0a.07.07,0,0,0,0-.06.11.11,0,0,1,0,.06.11.11,0,0,1,0,.09A.35.35,0,0,1,8,7.39a.54.54,0,0,1-.16,0l-.14,0a1.32,1.32,0,0,1-.3-.14A1.74,1.74,0,0,1,7.11,7,.73.73,0,0,1,7,6.91a.48.48,0,0,1-.08-.11.42.42,0,0,1-.06-.2Z" transform="translate(0.06 -3.89)"/><path d="M7.14,6.33l.08.08.21.17.34.19a1.84,1.84,0,0,0,.42.14c.29.08.59.13.81.19l.14,0s.08,0,.1,0a.09.09,0,0,0,0-.06,0,0,0,0,0,0,0,0,0,0,0,1,0,0s0,0,0,.09a.13.13,0,0,1-.13.08.54.54,0,0,1-.16,0A3,3,0,0,1,8.1,7.1L7.88,7a.87.87,0,0,1-.21-.11,1.86,1.86,0,0,1-.32-.25,1.44,1.44,0,0,1-.18-.24.26.26,0,0,1,0-.08S7.14,6.33,7.14,6.33Z" transform="translate(0.06 -3.89)"/><path d="M6.58,5.74l.16,0,.14,0,.18.06L7.24,6,7.4,6l.16.06a.63.63,0,0,1-.16,0,.33.33,0,0,1-.18,0,.21.21,0,0,1-.1,0,.23.23,0,0,1-.1,0A.62.62,0,0,1,6.85,6l-.13-.11A.36.36,0,0,1,6.58,5.74Z" transform="translate(0.06 -3.89)"/><path d="M7.92,6.2l0,0A.68.68,0,0,0,8,6l0-.08,0-.09a1.31,1.31,0,0,1,.13-.19,1.9,1.9,0,0,1,.29-.31.93.93,0,0,1,.16-.13,1,1,0,0,1-.06.19,2.91,2.91,0,0,1-.21.36A1.68,1.68,0,0,1,8.28,6s0,0-.06.08l-.08.06L8,6.18Z" transform="translate(0.06 -3.89)"/><path d="M8.9,5.48a.19.19,0,0,1,0,.08.48.48,0,0,1-.08.2L8.68,6l-.19.25c-.13.17-.27.33-.38.46l-.19.2s0-.11.1-.27a2.68,2.68,0,0,1,.32-.52,3.87,3.87,0,0,1,.43-.44.47.47,0,0,0,.13-.13A.15.15,0,0,0,8.9,5.48Z" transform="translate(0.06 -3.89)"/><path d="M9.23,6.23a.35.35,0,0,1,0,.14.37.37,0,0,1,0,.13s0,.09-.06.14a.75.75,0,0,1-.21.19.24.24,0,0,1-.13,0,.69.69,0,0,1,0-.13A1.57,1.57,0,0,1,9,6.53s0-.08.08-.11a.42.42,0,0,0,.08-.09A.44.44,0,0,1,9.23,6.23Z" transform="translate(0.06 -3.89)"/><path d="M9.19,5.43a.1.1,0,0,1,.06,0l0,.06,0,.09,0,.09a.68.68,0,0,1,.06.11.48.48,0,0,0,.08.11s0,.08.08.11a1,1,0,0,0,.18.19l.18.16s.11.08.14.11l.06,0h-.06a.42.42,0,0,1-.18,0,.88.88,0,0,1-.24-.13l-.11-.09-.11-.11a2.2,2.2,0,0,1-.16-.25,1.07,1.07,0,0,0,0-.13.39.39,0,0,1,0-.13V5.57s0,0,0-.06A.35.35,0,0,0,9.19,5.43Z" transform="translate(0.06 -3.89)"/><path d="M10.27,6.07l0,0,.08.06.11.09.13.09.13.09.11.09.11.09a.44.44,0,0,1-.16,0,.36.36,0,0,1-.16,0s-.06,0-.08,0l-.08,0a1,1,0,0,1-.13-.13.63.63,0,0,1-.08-.14A.9.9,0,0,1,10.27,6.07Z" transform="translate(0.06 -3.89)"/><path d="M9.89,6.91l.24,0a2.79,2.79,0,0,1,.5,0,3.85,3.85,0,0,1,.5.11l.22.08-.24,0a2.79,2.79,0,0,1-.5,0,3.85,3.85,0,0,1-.5-.11A.82.82,0,0,1,9.89,6.91Z" transform="translate(0.06 -3.89)"/><path d="M11.18,6.61a.86.86,0,0,1,.08.19,1.59,1.59,0,0,1,.06.42,1.17,1.17,0,0,1,0,.24.35.35,0,0,1-.13.2.25.25,0,0,1-.16,0l-.06,0,0,0a.16.16,0,0,0,.08-.09.46.46,0,0,0,0-.16v-.2a3.5,3.5,0,0,1,0-.42A1.4,1.4,0,0,0,11.18,6.61Z" transform="translate(0.06 -3.89)"/><path d="M11.58,7.35a.39.39,0,0,1,.13,0,.88.88,0,0,1,.29,0,.79.79,0,0,1,.27.09.48.48,0,0,1,.11.08l-.13,0a.81.81,0,0,1-.27,0,1,1,0,0,1-.26-.08A.66.66,0,0,1,11.58,7.35Z" transform="translate(0.06 -3.89)"/><path d="M11.61,7.74l.11-.06a.62.62,0,0,1,.26,0,.68.68,0,0,1,.26.06l.11.06a.4.4,0,0,1-.11,0,1.1,1.1,0,0,1-.24,0,.54.54,0,0,1-.24,0A.4.4,0,0,1,11.61,7.74Z" transform="translate(0.06 -3.89)"/><path d="M12.81,7.88H13l.14,0,.16,0,.16,0,.14,0,.14.06-.16.06a.88.88,0,0,1-.35,0A.58.58,0,0,1,13,8.07L12.89,8Z" transform="translate(0.06 -3.89)"/><path d="M11.49,8a.63.63,0,0,1,.18,0,1.16,1.16,0,0,1,.4,0,1.65,1.65,0,0,1,.37.13.68.68,0,0,1,.16.11.55.55,0,0,1-.18,0,1.82,1.82,0,0,1-.38,0l-.19,0-.18,0Z" transform="translate(0.06 -3.89)"/><path d="M11.58,8.39a.4.4,0,0,1,.1-.06.39.39,0,0,1,.24,0,.53.53,0,0,1,.22.06.26.26,0,0,1,.1.08.22.22,0,0,1-.11,0,1,1,0,0,1-.22,0,.93.93,0,0,1-.22,0Z" transform="translate(0.06 -3.89)"/><path d="M11.38,8.81a.4.4,0,0,1,.14,0l.29,0a1.45,1.45,0,0,1,.29,0,.65.65,0,0,1,.14,0,.41.41,0,0,1-.13.08,1,1,0,0,1-.61,0A.27.27,0,0,1,11.38,8.81Z" transform="translate(0.06 -3.89)"/><path d="M10.91,9.2a.55.55,0,0,1,.18,0,1.51,1.51,0,0,1,.35.06l.34.14a.84.84,0,0,1,.14.11.55.55,0,0,1-.18,0,1.51,1.51,0,0,1-.35-.06l-.34-.14Z" transform="translate(0.06 -3.89)"/><path d="M11.18,9.93h.69a.22.22,0,0,1-.08.11.32.32,0,0,1-.13.06l-.08,0H11.5l-.16,0a.2.2,0,0,1-.11-.08l-.06-.08S11.18,9.93,11.18,9.93Z" transform="translate(0.06 -3.89)"/><path d="M11.22,9a.16.16,0,0,1,.11,0h.11a.17.17,0,0,1,.11,0,.41.41,0,0,1,.16.17.15.15,0,0,1,0,.11l-.1,0-.08,0-.08,0-.08,0-.08,0Z" transform="translate(0.06 -3.89)"/><path d="M10.19,9.58l.13,0,.11,0,.13,0a1,1,0,0,1,.22.13l.1.08-.13,0a.9.9,0,0,1-.27,0,.48.48,0,0,1-.22-.16A.43.43,0,0,1,10.19,9.58Z" transform="translate(0.06 -3.89)"/><path d="M10.35,10.24h0l.11,0H11l.14,0a.65.65,0,0,0,.14,0,.12.12,0,0,1,0,0,.21.21,0,0,1-.08.09.7.7,0,0,1-.16.09l-.1,0h-.1a1,1,0,0,1-.34-.08.7.7,0,0,1-.11-.06S10.35,10.24,10.35,10.24Z" transform="translate(0.06 -3.89)"/><path d="M9.62,10.07l.14,0A1.67,1.67,0,0,1,10,10l.16,0a.3.3,0,0,1,.13,0s.06,0,.08,0l0,0a.12.12,0,0,1,0,0,.16.16,0,0,1-.1.08.47.47,0,0,1-.14,0,.28.28,0,0,1-.16,0,.48.48,0,0,1-.16,0l-.14,0A.27.27,0,0,1,9.62,10.07Z" transform="translate(0.06 -3.89)"/><path d="M9.09,10.13a0,0,0,0,0,0,0l0,0H9.3l.06,0,.26.06.13.06a.18.18,0,0,1-.11.06.86.86,0,0,1-.29,0l-.08,0s0,0-.08,0l-.08,0,0,0,0,0a0,0,0,0,0,0,0,.12.12,0,0,1,0-.13Z" transform="translate(0.06 -3.89)"/><path d="M8.34,10.08a.54.54,0,0,0,.1.13l.11.08.06,0,.08,0,.18.06.16.06.14.09H9a1.12,1.12,0,0,1-.37,0l-.1,0-.1-.06a.48.48,0,0,1-.11-.16.39.39,0,0,1,0-.13S8.34,10.08,8.34,10.08Z" transform="translate(0.06 -3.89)"/><path d="M7.73,10.23a.4.4,0,0,1,.13.06.4.4,0,0,1,.11.06l.13.06.13.06a.7.7,0,0,1,.11.06l.13.06a.4.4,0,0,1-.14,0H8.18l-.08,0L8,10.6l-.14-.09a.3.3,0,0,1-.1-.11Z" transform="translate(0.06 -3.89)"/><path d="M6.81,10.38l0,0H7l.42,0,.4.06.19.06a.93.93,0,0,1-.19,0,1.76,1.76,0,0,1-.42,0A2.32,2.32,0,0,1,7,10.52l-.08,0-.06,0S6.81,10.38,6.81,10.38Z" transform="translate(0.06 -3.89)"/><path d="M5.37,10.23l.19,0h.19l.22,0,.42.06.19.06-.19.06a1.87,1.87,0,0,1-.43,0,1.44,1.44,0,0,1-.42-.11A.93.93,0,0,1,5.37,10.23Z" transform="translate(0.06 -3.89)"/><path d="M4.27,10.48h0l.11,0a.58.58,0,0,1,.18,0,.86.86,0,0,1,.21,0,2.88,2.88,0,0,1,.38,0,.63.63,0,0,1,.18,0l-.18.06a2.15,2.15,0,0,1-.38.06H4.6a.58.58,0,0,1-.18,0,.24.24,0,0,1-.13-.06S4.27,10.48,4.27,10.48Z" transform="translate(0.06 -3.89)"/><path d="M4.27,10.12a1.3,1.3,0,0,1,.24,0,1.31,1.31,0,0,1,.26,0H5a1.31,1.31,0,0,0,.26,0A.81.81,0,0,0,5.51,10a.42.42,0,0,0,.16-.16v.06a.33.33,0,0,1-.08.17.48.48,0,0,1-.22.16,1,1,0,0,1-.3,0,2.57,2.57,0,0,1-.54-.06Z" transform="translate(0.06 -3.89)"/><path d="M4.86,9.49l0,0L5,9.5a1.59,1.59,0,0,1,.42,0,1.07,1.07,0,0,1,.22,0,.65.65,0,0,0,.18,0,.23.23,0,0,0,.11,0s0,0,0,0v.06a.24.24,0,0,1-.11.11.8.8,0,0,1-.21.06,1,1,0,0,1-.22,0,1.67,1.67,0,0,1-.42,0,.4.4,0,0,1-.14-.06S4.86,9.49,4.86,9.49Z" transform="translate(0.06 -3.89)"/><path d="M5.27,9.17a.07.07,0,0,0,0,0l.16,0a2.3,2.3,0,0,1,.5,0,2.3,2.3,0,0,1,.5,0l.14,0,.06,0a.1.1,0,0,1,0,.06.25.25,0,0,1-.16.06,2.4,2.4,0,0,1-.5,0,2.3,2.3,0,0,1-.5,0,.57.57,0,0,1-.18,0S5.27,9.17,5.27,9.17Z" transform="translate(0.06 -3.89)"/><path d="M6.33,8.18a.09.09,0,0,1,0,.06.51.51,0,0,1,0,.16.44.44,0,0,1-.11.2l-.1.09L6,8.78l-.11,0-.13,0-.21,0a.62.62,0,0,1-.21,0,.89.89,0,0,1,.19-.08,1.35,1.35,0,0,1,.19-.06.23.23,0,0,1,.1,0l.1,0,.08,0a.16.16,0,0,0,.08-.06,1,1,0,0,0,.13-.13s.06-.08.06-.11A.5.5,0,0,1,6.33,8.18Z" transform="translate(0.06 -3.89)"/><path d="M7,8.51A.3.3,0,0,1,7,8.64a.69.69,0,0,0-.1.11l-.14.09a.73.73,0,0,1-.3.08l-.14,0,.11-.09.24-.16.14-.06.13,0Z" transform="translate(0.06 -3.89)"/><path d="M7.11,6.78l-.24.11-.51.2-.27.11a1.22,1.22,0,0,0-.21.11s-.1.08-.11.13l0,.06a.11.11,0,0,1,0-.08.27.27,0,0,1,.08-.19A.8.8,0,0,1,6,7l.27-.14a2,2,0,0,1,.29-.09l.27,0Z" transform="translate(0.06 -3.89)"/><path d="M6.87,6.11l0,0a1.07,1.07,0,0,0,0,.13l-.08.19a.6.6,0,0,1-.16.2.32.32,0,0,1-.13.06l-.13,0a.72.72,0,0,1-.21,0L5.9,6.67l0,0a.32.32,0,0,1,.14,0l.19,0s0,0,.08,0l.08,0a1.21,1.21,0,0,0,.14-.14,1.11,1.11,0,0,0,.13-.16.52.52,0,0,1,.13-.09Z" transform="translate(0.06 -3.89)"/><path d="M7,5.3a.77.77,0,0,1-.24.11l-.26.08-.3,0H6a.45.45,0,0,1-.14,0l-.26,0a1.16,1.16,0,0,1-.24-.09l.26,0,.26,0,.29,0,.29,0,.26,0Z" transform="translate(0.06 -3.89)"/><path d="M6.81,4.85a.08.08,0,0,0-.06,0,.4.4,0,0,0-.18.08,5.36,5.36,0,0,1-.56.2,3.21,3.21,0,0,1-.58.13l-.27,0a1.78,1.78,0,0,1,.24-.13A5.36,5.36,0,0,1,6,4.94a3.21,3.21,0,0,1,.58-.13.46.46,0,0,1,.21,0A.07.07,0,0,1,6.81,4.85Z" transform="translate(0.06 -3.89)"/><path d="M3.93,6.33v.06s0,.09-.06.16a.55.55,0,0,1-.16.17.63.63,0,0,1-.26.11.36.36,0,0,1-.13,0H3.2a1,1,0,0,1-.22,0l-.21-.06A.93.93,0,0,1,3,6.7l.21,0,.11,0,.11,0,.21-.08.18-.09.11-.09Z" transform="translate(0.06 -3.89)"/><path d="M6.84,7.38a1.56,1.56,0,0,1,.27,0l.27,0,.3,0,.3,0,.26,0,.26.06-.27.06a1.48,1.48,0,0,1-.27,0l-.32,0a1.71,1.71,0,0,1-.3-.08l-.26-.09A.76.76,0,0,1,6.84,7.38Z" transform="translate(0.06 -3.89)"/><path d="M9.78,5.76l-.06,0-.14.09L9.38,6l-.21.17a2.43,2.43,0,0,0-.19.2l-.08.09a.33.33,0,0,0-.06.09l-.1.14a.27.27,0,0,0,0,.06V6.75a.8.8,0,0,1,0-.17.79.79,0,0,1,.11-.24l.08-.13A.37.37,0,0,1,9,6.11L9.15,6a.35.35,0,0,1,.13-.08.94.94,0,0,1,.24-.09l.18,0S9.78,5.76,9.78,5.76Z" transform="translate(0.06 -3.89)"/><path d="M9.51,4.91a.89.89,0,0,1-.1.14,1.4,1.4,0,0,1-.27.25l-.3.19a.49.49,0,0,0-.13.11v0a.25.25,0,0,1,0-.13.87.87,0,0,1,.11-.14A.62.62,0,0,1,9,5.16,2.42,2.42,0,0,1,9.35,5,.57.57,0,0,1,9.51,4.91Z" transform="translate(0.06 -3.89)"/><path d="M9.43,6.62a.47.47,0,0,0,.1.14l.14.11L9.84,7l.3.27.13.14a.54.54,0,0,1-.19,0,1.25,1.25,0,0,1-.37-.2A.75.75,0,0,1,9.55,7a.41.41,0,0,1-.11-.17.16.16,0,0,1,0-.14S9.43,6.62,9.43,6.62Z" transform="translate(0.06 -3.89)"/><path d="M10.31,6.44a.41.41,0,0,1,.08.13.83.83,0,0,1,.1.3,1,1,0,0,1,0,.31.62.62,0,0,1,0,.14.75.75,0,0,1-.06-.13.83.83,0,0,1-.06-.3.93.93,0,0,1,0-.3A.7.7,0,0,1,10.31,6.44Z" transform="translate(0.06 -3.89)"/><path d="M10.51,7.6a.12.12,0,0,0,0,0,.26.26,0,0,0,0,.08.42.42,0,0,0,.08.09s0,0,0,0,0,0,0,0l.06,0,.06,0L11,8l.13.06a.4.4,0,0,1-.14,0,.27.27,0,0,1-.16,0,.21.21,0,0,1-.1,0,.23.23,0,0,0-.1,0L10.54,8a.16.16,0,0,1-.06-.08.31.31,0,0,1,0-.17.18.18,0,0,1,0-.11S10.51,7.6,10.51,7.6Z" transform="translate(0.06 -3.89)"/><path d="M10,8.24l0,0a.3.3,0,0,0,.14.06l.24,0,.27,0a3.83,3.83,0,0,1,.53.11,1.15,1.15,0,0,1,.24.08.84.84,0,0,1-.24,0,2.22,2.22,0,0,1-.54,0,1.88,1.88,0,0,1-.29-.06.64.64,0,0,1-.24-.09A.34.34,0,0,1,10,8.31.1.1,0,0,1,10,8.24Z" transform="translate(0.06 -3.89)"/><path d="M10.1,9.08a.4.4,0,0,1,.11,0l.1,0,.11,0,.11,0a.23.23,0,0,1,.1,0l.11,0a.23.23,0,0,1,0,.13.42.42,0,0,1-.08.09.35.35,0,0,1-.13.08.47.47,0,0,1-.14,0,.32.32,0,0,1-.13,0A.36.36,0,0,1,10.1,9.08Z" transform="translate(0.06 -3.89)"/><path d="M9.15,7.44l.16-.06a1.3,1.3,0,0,1,.37,0,.79.79,0,0,1,.19,0,.28.28,0,0,1,.19.06.14.14,0,0,1,.08.13v0l0,0a.17.17,0,0,0-.1,0l-.14,0a.79.79,0,0,1-.19,0,2.46,2.46,0,0,1-.37,0Z" transform="translate(0.06 -3.89)"/><path d="M9.11,7.9l.19-.06a1.85,1.85,0,0,1,.83,0,.57.57,0,0,1,.19.06L10.13,8A1.85,1.85,0,0,1,9.3,8Z" transform="translate(0.06 -3.89)"/><path d="M7.86,8.12h.93a.49.49,0,0,1-.13.11.48.48,0,0,1-.16.06l-.1,0a.21.21,0,0,0-.1,0,.81.81,0,0,1-.19,0A.48.48,0,0,1,8,8.23Z" transform="translate(0.06 -3.89)"/><path d="M8.87,7.52s0,.08,0,.19a1,1,0,0,1-.24.36,1,1,0,0,1-.21.14.56.56,0,0,1-.21,0,.5.5,0,0,1-.16,0l0,0a.55.55,0,0,0,.18-.08l.16-.09.16-.13.29-.28A.79.79,0,0,1,8.87,7.52Z" transform="translate(0.06 -3.89)"/><path d="M7.64,8.29l0,0a.19.19,0,0,1,0,.14.17.17,0,0,1,0,.11.33.33,0,0,1-.1.06l-.19.09A1.37,1.37,0,0,1,7,8.87l-.19,0a.62.62,0,0,1,.14-.13,2.28,2.28,0,0,1,.35-.2,1,1,0,0,1,.19-.08c.06,0,.08,0,.11-.06a.29.29,0,0,0,0-.11A0,0,0,0,0,7.64,8.29Z" transform="translate(0.06 -3.89)"/><path d="M7.45,9l0,0-.13.08-.18.09-.19.11-.19.13-.16.11-.18.11a.55.55,0,0,1,.1-.19,1.15,1.15,0,0,1,.14-.17.42.42,0,0,1,.1-.08l.1-.08L7,9.08a.56.56,0,0,1,.21,0Z" transform="translate(0.06 -3.89)"/><path d="M6.12,9.5l0,0a.33.33,0,0,0,.06.09l.11.09.06,0a.12.12,0,0,0,.08,0s0,0,.08,0l.08,0,.16.06A.62.62,0,0,1,7,10a.43.43,0,0,1-.18,0H6.6l-.1,0-.1,0a.33.33,0,0,1-.1-.06.19.19,0,0,1-.08-.08.37.37,0,0,1-.1-.17.21.21,0,0,1,0-.14A.12.12,0,0,1,6.12,9.5Z" transform="translate(0.06 -3.89)"/><path d="M7,9.66a0,0,0,0,0,0,0s.06,0,.1,0h.7l.18,0a.59.59,0,0,1-.14.09.84.84,0,0,1-.37.08.92.92,0,0,1-.21,0l-.1,0-.08,0A.17.17,0,0,1,7,9.74C7,9.68,7,9.66,7,9.66Z" transform="translate(0.06 -3.89)"/><path d="M7.46,10.15A.63.63,0,0,1,7.57,10a2.24,2.24,0,0,1,.29-.19,1.67,1.67,0,0,1,.34-.11l.16,0a.63.63,0,0,1-.11.11A2.24,2.24,0,0,1,8,10a1.67,1.67,0,0,1-.34.11Z" transform="translate(0.06 -3.89)"/><path d="M8.58,9.42l0,0a.7.7,0,0,0,.11.06l.14.09.18.11a1.17,1.17,0,0,1,.29.27.92.92,0,0,1,.06.13.12.12,0,0,1,0,0l0,0a.7.7,0,0,0-.11-.06L9.12,10l-.18-.11-.16-.13a1,1,0,0,1-.13-.14.92.92,0,0,1-.06-.13A.09.09,0,0,0,8.58,9.42Z" transform="translate(0.06 -3.89)"/><path d="M9.35,9.64l.13,0H9.6l.13,0a1.06,1.06,0,0,1,.24.06l.06,0,0,0v0a.15.15,0,0,1-.1.06.52.52,0,0,1-.27,0,.63.63,0,0,1-.26-.11A.26.26,0,0,1,9.35,9.64Z" transform="translate(0.06 -3.89)"/><path d="M9.39,9.25l.16-.06a1.08,1.08,0,0,1,.34,0,.61.61,0,0,1,.18,0l.08,0h.06a.21.21,0,0,0,.1,0l0,0v0a.11.11,0,0,1-.1.09.12.12,0,0,1-.08,0,.21.21,0,0,1-.1,0,.67.67,0,0,1-.18,0,1.08,1.08,0,0,1-.34,0A.39.39,0,0,1,9.39,9.25Z" transform="translate(0.06 -3.89)"/><path d="M8.88,8.67l.19,0,.18,0a.86.86,0,0,1,.21,0l.21,0a.61.61,0,0,0,.18,0H10a.68.68,0,0,1-.16.11.58.58,0,0,1-.18.06l-.22,0H9.25l-.19,0A.93.93,0,0,1,8.88,8.67Z" transform="translate(0.06 -3.89)"/><path d="M9,9.16l.06,0,.06,0a.1.1,0,0,1,.06,0,.32.32,0,0,1,.13,0l.08,0a.23.23,0,0,1,0,.08.31.31,0,0,1-.14.08.27.27,0,0,1-.16,0A.12.12,0,0,1,9,9.16Z" transform="translate(0.06 -3.89)"/><path d="M7.67,9.5a.22.22,0,0,1,.1,0l.08,0,.1,0a.58.58,0,0,1,.18,0l.1,0a.18.18,0,0,1-.08.06.36.36,0,0,1-.38,0Z" transform="translate(0.06 -3.89)"/><path d="M7.49,8.81a.07.07,0,0,0,0,0,0,0,0,0,0,0,0l0,0,.19,0L8,9l.4.08.19,0-.19.06a1.31,1.31,0,0,1-.43,0,.93.93,0,0,1-.22-.06.23.23,0,0,0-.1,0l-.1,0a.19.19,0,0,1-.08-.08.07.07,0,0,1,0-.08S7.51,8.81,7.49,8.81Z" transform="translate(0.06 -3.89)"/><path d="M8.53,8.31a.57.57,0,0,1,.11.11.85.85,0,0,1,.13.3.64.64,0,0,1,0,.17.35.35,0,0,1,0,.17s0,0-.06,0a.1.1,0,0,1-.06,0,.07.07,0,0,1,0,0l0,0s0,0,0,0V9a.4.4,0,0,0,0-.11s0-.09,0-.16a2.12,2.12,0,0,1,0-.3A.79.79,0,0,0,8.53,8.31Z" transform="translate(0.06 -3.89)"/><path d="M7.59,9.19a.21.21,0,0,1,0,.11.21.21,0,0,1,0,.11l-.08.11a.34.34,0,0,1-.21.11.22.22,0,0,1-.11,0,.27.27,0,0,1,.06-.09,1.11,1.11,0,0,1,.13-.16l.08-.08.08-.06Z" transform="translate(0.06 -3.89)"/><path d="M8.95,8.18A.27.27,0,0,1,9,8.1S9,8,9.06,8a.12.12,0,0,1,.13,0l.06,0a.27.27,0,0,1,0,.06.33.33,0,0,1-.1.06.14.14,0,0,1-.11,0Z" transform="translate(0.06 -3.89)"/><path d="M9.6,9l.1,0,.08,0,.1,0h.19l.1,0a.17.17,0,0,1-.06.08.31.31,0,0,1-.21.08.28.28,0,0,1-.11,0l-.1,0A.23.23,0,0,1,9.6,9Z" transform="translate(0.06 -3.89)"/><path d="M10.53,9.33l0,0,.06,0,.06,0,.06,0,.06,0,.06,0,.08,0a.11.11,0,0,1-.08.06h-.13l-.11,0a.19.19,0,0,1-.08-.08.22.22,0,0,1,0-.09V9.33Z" transform="translate(0.06 -3.89)"/><path d="M11.07,9l-.06,0a.12.12,0,0,1,0-.19.12.12,0,0,1,.06,0l.06,0a.12.12,0,0,1,0,.19Z" transform="translate(0.06 -3.89)"/><path d="M11.33,8.13a.42.42,0,0,1,0-.14l0-.13s0-.09.06-.14a.92.92,0,0,1,.18-.24l.11-.09a.35.35,0,0,1,0,.14.8.8,0,0,1-.11.28,1.55,1.55,0,0,1-.19.24Z" transform="translate(0.06 -3.89)"/><path d="M10.85,7.35a1.36,1.36,0,0,1-.29.11,4.71,4.71,0,0,1-.64.16,5.34,5.34,0,0,1-.65,0l-.3,0a2.45,2.45,0,0,1,.29-.09,6.64,6.64,0,0,1,1.29-.19Z" transform="translate(0.06 -3.89)"/><path d="M10,5.79l0,0a.76.76,0,0,1,0,.11.56.56,0,0,1,0,.17c0,.06,0,.14,0,.2s0,.06,0,.09l0,.09a.55.55,0,0,1-.11.14.35.35,0,0,1-.14.09.12.12,0,0,1,0,0,1,1,0,0,0,0-.11s0-.09,0-.16,0-.11,0-.17l0-.17c0-.06,0-.11,0-.16a.35.35,0,0,0,0-.11Z" transform="translate(0.06 -3.89)"/><path d="M8.29,6.64a.12.12,0,0,0,0,0s0,.06,0,.09a.92.92,0,0,0,.06.13A.63.63,0,0,0,8.5,7l.08.14a.92.92,0,0,1,.06.13,1.21,1.21,0,0,1,0,.14.42.42,0,0,1-.14-.08.71.71,0,0,1-.22-.25A.76.76,0,0,1,8.26,7a.64.64,0,0,1,0-.17.18.18,0,0,1,0-.11A.05.05,0,0,1,8.29,6.64Z" transform="translate(0.06 -3.89)"/><path d="M7.65,5.87a.92.92,0,0,1,0,.2,3.17,3.17,0,0,1-.14.41,1.29,1.29,0,0,1-.11.2.49.49,0,0,1-.14.17.23.23,0,0,1-.1,0H7l0,0,0,0a.21.21,0,0,0,.1-.08.8.8,0,0,0,.06-.16c0-.06.06-.14.08-.2A1.57,1.57,0,0,1,7.51,6,1.5,1.5,0,0,1,7.65,5.87Z" transform="translate(0.06 -3.89)"/><path d="M7.56,4.78a.86.86,0,0,1-.11.2,1.67,1.67,0,0,1-.16.19l-.11.09A.89.89,0,0,1,7,5.35l-.27.11-.26,0a.5.5,0,0,1-.18,0l-.06,0a1.35,1.35,0,0,0,.22-.06,3.29,3.29,0,0,0,.43-.19,3.16,3.16,0,0,0,.42-.25A1.63,1.63,0,0,1,7.56,4.78Z" transform="translate(0.06 -3.89)"/><path d="M7.54,4.31a.27.27,0,0,1,0,.08.14.14,0,0,1,0,.08s0,0,0,0h0l0,0-.11,0a.24.24,0,0,0-.11,0,.65.65,0,0,0-.24,0l-.13,0a.4.4,0,0,0-.11.06l-.22.11-.22.09.16-.19a1.31,1.31,0,0,1,.46-.31l.16,0a.54.54,0,0,1,.16,0l.14,0a.16.16,0,0,1,.1.08s0,0,0,0h0l.06,0A.12.12,0,0,0,7.54,4.31Z" transform="translate(0.06 -3.89)"/><path d="M8.28,4.2a.27.27,0,0,1,0,.16.68.68,0,0,1,0,.16.49.49,0,0,1-.08.16.28.28,0,0,1-.06.08s0,0-.06.06a.65.65,0,0,1-.14.08.49.49,0,0,1-.16,0,.93.93,0,0,1,.08-.13s0-.08.08-.11A.55.55,0,0,0,8,4.56l.08-.13a.67.67,0,0,1,.08-.11.33.33,0,0,0,.06-.09Z" transform="translate(0.06 -3.89)"/><path d="M2.75,7.54a.1.1,0,0,1,0-.06A.31.31,0,0,1,3,7.38a1.43,1.43,0,0,1,.27,0,2.07,2.07,0,0,1,.32,0c.21,0,.43,0,.59,0a1.73,1.73,0,0,1,.27,0l-.27.06a3.33,3.33,0,0,1-.59,0,2.17,2.17,0,0,1-.32,0,1.43,1.43,0,0,1-.27,0,.32.32,0,0,0-.18,0A.27.27,0,0,0,2.75,7.54Z" transform="translate(0.06 -3.89)"/><path d="M3.37,8.53l0,0,.13,0,.18,0,.19,0h.19l.18,0,.13,0h0l0,0a.34.34,0,0,1-.11.09.54.54,0,0,1-.19.08L4,8.83H3.88a.24.24,0,0,1-.11,0l-.11,0a.62.62,0,0,1-.18-.09l-.11-.09S3.37,8.53,3.37,8.53Z" transform="translate(0.06 -3.89)"/><path d="M13.08,8.37a1.84,1.84,0,0,1-.27.17,1.35,1.35,0,0,1-.3.11,2.52,2.52,0,0,1-.37.08c-.26,0-.5,0-.67,0l-.3,0a1,1,0,0,1,.29-.14,1.71,1.71,0,0,1,.3-.08l.35,0,.35,0a1.72,1.72,0,0,0,.3-.06Z" transform="translate(0.06 -3.89)"/><path d="M12.8,9.22a1.83,1.83,0,0,1-.29.19l-.32.16a3.63,3.63,0,0,1-.38.13l-.21,0-.19,0a2.88,2.88,0,0,1-.35,0,1.24,1.24,0,0,1-.35,0,.24.24,0,0,1,.1,0l.24,0,.34-.06.38-.09.38-.09.34-.09.24-.06S12.8,9.22,12.8,9.22Z" transform="translate(0.06 -3.89)"/><path d="M7.49,8.43l.3,0,.3.06a2.91,2.91,0,0,1,.34.13l.16.08.14.09L9,9a.85.85,0,0,1,.21.22l-.27-.13L8.66,9l-.3-.14-.3-.14-.27-.13A1.32,1.32,0,0,1,7.49,8.43Z" transform="translate(0.06 -3.89)"/><path d="M8.13,7.9a2.12,2.12,0,0,1,.21-.17l.22-.16.11-.09.11-.09A2.75,2.75,0,0,0,9,7.16c0-.08.1-.16.14-.22a1.52,1.52,0,0,0,.08-.17.17.17,0,0,1,0-.06v.08a1,1,0,0,1-.3.74l-.13.11a.65.65,0,0,1-.14.08l-.26.11Z" transform="translate(0.06 -3.89)"/><path d="M6.89,8.42,7,8.4l.18,0a1,1,0,0,0,.21-.06.33.33,0,0,0,.1-.06.16.16,0,0,0,.06-.08.92.92,0,0,0,.1-.22c0-.08.06-.16.1-.22a1.26,1.26,0,0,1,.13-.2,2.33,2.33,0,0,1,0,.24,1.38,1.38,0,0,1,0,.24,1.18,1.18,0,0,1-.1.28.46.46,0,0,1-.27.19.54.54,0,0,1-.27,0A.63.63,0,0,1,6.89,8.42Z" transform="translate(0.06 -3.89)"/><path d="M6.1,6.72a1.3,1.3,0,0,1,.26.16,4.51,4.51,0,0,1,.5.39,1,1,0,0,1,.22.28.65.65,0,0,1,.06.16.26.26,0,0,1,0,.16.31.31,0,0,1-.1.2s-.06,0-.06,0L7,8a.64.64,0,0,0,0-.19.29.29,0,0,0,0-.11l-.06-.11a1.52,1.52,0,0,0-.22-.24c-.08-.08-.18-.16-.24-.24a2.05,2.05,0,0,1-.19-.22A2.37,2.37,0,0,1,6.1,6.72Z" transform="translate(0.06 -3.89)"/><path d="M6,7.79l0-.11,0-.09a.33.33,0,0,1,.06-.09l.06-.09a.34.34,0,0,1,.06-.08l.08-.08a.24.24,0,0,1,0,.13.49.49,0,0,1-.06.25s0,.08-.1.11a.33.33,0,0,1-.1.06Z" transform="translate(0.06 -3.89)"/><path d="M5.37,8.92l.14,0,.14,0,.16,0,.16,0h.3a.72.72,0,0,1-.13.09A.4.4,0,0,1,6,9a.58.58,0,0,1-.18,0H5.66A.47.47,0,0,1,5.5,9,.27.27,0,0,1,5.37,8.92Z" transform="translate(0.06 -3.89)"/><path d="M5.13,9.14a0,0,0,0,0,0,0s0,0,0,0l0,.06,0,.06s0,0,0,.08,0,0,0,.08l0,.09a.22.22,0,0,1-.11,0s-.06,0-.1,0,0-.06-.08-.09a.29.29,0,0,1,0-.11.26.26,0,0,1,0-.11A.39.39,0,0,1,5.13,9.14Z" transform="translate(0.06 -3.89)"/><path d="M4.33,9.22a.54.54,0,0,0-.18.16.81.81,0,0,0-.1.2.29.29,0,0,0,0,.13.45.45,0,0,0,0,.14.91.91,0,0,1-.13.28.64.64,0,0,1-.21.2.34.34,0,0,1-.19,0l-.08,0a.43.43,0,0,0,.19-.13.38.38,0,0,0,.11-.19,1.17,1.17,0,0,0,.08-.25l0-.14a.55.55,0,0,1,.06-.14.64.64,0,0,1,.18-.22.4.4,0,0,1,.18-.08Z" transform="translate(0.06 -3.89)"/><path d="M3.6,8.29a2.32,2.32,0,0,1-.22.22l-.24.2A1.38,1.38,0,0,1,3,8.83a.81.81,0,0,1-.21.08.92.92,0,0,1-.21,0h-.1a.21.21,0,0,1-.1,0,.69.69,0,0,1-.18,0L2,8.84q-.14,0-.19,0a.12.12,0,0,0,0,.08s0,0,0-.09a.15.15,0,0,1,.1-.06.45.45,0,0,1,.14,0h.5a.5.5,0,0,0,.16,0A1,1,0,0,0,3,8.59a2.6,2.6,0,0,1,.29-.16A1.5,1.5,0,0,1,3.6,8.29Z" transform="translate(0.06 -3.89)"/><path d="M1.15,9.12a.5.5,0,0,1,0,.11s0,.06,0,.09a.76.76,0,0,0,0,.11.7.7,0,0,1-.13.17l-.1.08a.38.38,0,0,1,0-.11.48.48,0,0,1,.06-.24.46.46,0,0,1,.18-.17Z" transform="translate(0.06 -3.89)"/><path d="M1.07,8.61a.42.42,0,0,1,0,.14A.92.92,0,0,1,1,8.87L.88,9a.75.75,0,0,1-.26.16.26.26,0,0,1-.14,0l.08-.11.18-.2.11-.09a.42.42,0,0,1,.1-.08Z" transform="translate(0.06 -3.89)"/><path d="M.91,9.55l-.1,0a.23.23,0,0,1-.11,0,.28.28,0,0,1-.11,0H.38l-.11,0a.32.32,0,0,1,.08-.08.41.41,0,0,1,.22-.08.34.34,0,0,1,.22,0A.36.36,0,0,1,.91,9.55Z" transform="translate(0.06 -3.89)"/><path d="M.8,10.1a.41.41,0,0,1-.08.14.73.73,0,0,1-.11.11l-.16.09-.1,0a.21.21,0,0,1-.1,0H.1a.63.63,0,0,1-.16,0l.14-.06.13,0a.5.5,0,0,1,.16-.08.57.57,0,0,0,.14-.06l.13,0Z" transform="translate(0.06 -3.89)"/><path d="M1.2,10.54a.14.14,0,0,1,0,.14.19.19,0,0,1-.06.13s0,0-.06.06L1,10.9l-.08,0H.85a.32.32,0,0,1-.13,0,.27.27,0,0,1-.13-.06l.11-.06.11,0,.06,0,0,0,0,0,0,0a.16.16,0,0,0,.08-.06A.12.12,0,0,0,1.2,10.54Z" transform="translate(0.06 -3.89)"/><path d="M2.53,10.67l.24,0H3a1.76,1.76,0,0,1,.29,0l.53.06.24.06a1.3,1.3,0,0,1-.24,0,2.81,2.81,0,0,1-.53,0,2.43,2.43,0,0,1-.53-.09A.82.82,0,0,1,2.53,10.67Z" transform="translate(0.06 -3.89)"/><path d="M6.23,10.65a.65.65,0,0,1,.19,0,.73.73,0,0,1,.19,0,1.15,1.15,0,0,1,.22,0,.92.92,0,0,1,.38.13.68.68,0,0,1,.16.11.63.63,0,0,1-.19,0l-.38,0-.21,0-.18,0Z" transform="translate(0.06 -3.89)"/><path d="M5.8,9.85,6,9.79a1.33,1.33,0,0,1,.7,0,.4.4,0,0,1,.16.06l-.16.06a2.24,2.24,0,0,1-.35,0A1.19,1.19,0,0,1,6,9.9.63.63,0,0,1,5.8,9.85Z" transform="translate(0.06 -3.89)"/><path d="M9.38,9.09a.27.27,0,0,1,0,.06.42.42,0,0,1-.18.14,1.21,1.21,0,0,1-.29.11,2.51,2.51,0,0,1-.34.06,2.4,2.4,0,0,1-.34,0,1.86,1.86,0,0,1-.3,0,1.74,1.74,0,0,1-.29,0l.29-.06.62-.09a2.42,2.42,0,0,1,.34,0,1.39,1.39,0,0,0,.27,0,1.35,1.35,0,0,0,.19-.06Z" transform="translate(0.06 -3.89)"/><path d="M9.36,7l0,0a.12.12,0,0,1,0,0s0,0,0,0l-.06,0,0,0s0-.06,0-.08a.06.06,0,0,1,.08,0A.07.07,0,0,1,9.36,7Z" transform="translate(0.06 -3.89)"/><path d="M9.25,5.68a.27.27,0,0,1,0,.11A.45.45,0,0,1,9.09,6a.6.6,0,0,1-.19.11l-.11,0,0-.11a1.2,1.2,0,0,1,.13-.17.78.78,0,0,1,.18-.11Z" transform="translate(0.06 -3.89)"/><path d="M8.56,6.15a.22.22,0,0,1,0,.08.55.55,0,0,1,0,.16.29.29,0,0,1-.06.14l-.06.06a.22.22,0,0,1,0-.08.48.48,0,0,1,0-.16.39.39,0,0,1,.06-.14A.29.29,0,0,1,8.56,6.15Z" transform="translate(0.06 -3.89)"/><path d="M4.83,6.2l.08,0,.06,0,.06,0a.87.87,0,0,1,.1.13l0,.08-.1,0a.34.34,0,0,1-.18-.08.25.25,0,0,1-.08-.16A.34.34,0,0,1,4.83,6.2Z" transform="translate(0.06 -3.89)"/><path d="M5.1,5.79l.1,0s0,0,.08,0l.08,0,.08,0,.08,0L5.59,6a.22.22,0,0,1-.1,0,.14.14,0,0,1-.11,0l-.11,0L5.18,6a.33.33,0,0,1-.06-.09A.15.15,0,0,1,5.1,5.79Z" transform="translate(0.06 -3.89)"/><path d="M9.83,4.06a.81.81,0,0,1-.16.17l-.1.08a.7.7,0,0,1-.11.06,1.37,1.37,0,0,1-.27.09,3.21,3.21,0,0,1-.5.08l-.16,0-.06,0,0,0a.56.56,0,0,1,.14-.09l.22-.09a1.51,1.51,0,0,1,.26-.06l.13,0,.13,0,.11,0a.23.23,0,0,1,.1,0l.16-.06S9.83,4.06,9.83,4.06Z" transform="translate(0.06 -3.89)"/><path d="M11.3,4.78a1.46,1.46,0,0,1,0,.19,1.31,1.31,0,0,1-.06.19,1.17,1.17,0,0,1-.11.19,1.43,1.43,0,0,1-.14.16.49.49,0,0,1-.16.11.55.55,0,0,1-.18.08.69.69,0,0,1,.1-.16,1.38,1.38,0,0,0,.1-.16,1.65,1.65,0,0,0,.11-.17s.08-.11.13-.16l.11-.14Z" transform="translate(0.06 -3.89)"/><path d="M10.54,4.42l0,.08a1.92,1.92,0,0,1-.13.19,1.47,1.47,0,0,1-.22.22,2.2,2.2,0,0,1-.32.2,3.05,3.05,0,0,1-.34.14l-.3.08a1.91,1.91,0,0,1-.3,0l.26-.14a2.55,2.55,0,0,1,.29-.13l.32-.16a4.31,4.31,0,0,0,.56-.33l.18-.14A.12.12,0,0,1,10.54,4.42Z" transform="translate(0.06 -3.89)"/><path d="M12.53,5.82a0,0,0,0,0,0,0s0,0,0,.06a.12.12,0,0,1,0,.08s0,0-.08.08a.23.23,0,0,1-.1,0,.21.21,0,0,1-.1,0,.23.23,0,0,1-.08,0A.19.19,0,0,0,12.22,6l0,0s0,0,0,0l0,0,.06,0a.06.06,0,0,1,0,0Z" transform="translate(0.06 -3.89)"/><path d="M2,7.46l.13.11a.73.73,0,0,0,.11.11.9.9,0,0,0,.11.13l.11.14.1.13a.89.89,0,0,1,.1.14.4.4,0,0,1-.16,0,.38.38,0,0,1-.14-.09,1,1,0,0,1-.14-.13,1,1,0,0,1-.11-.16A.65.65,0,0,1,2,7.63.69.69,0,0,1,2,7.46Z" transform="translate(0.06 -3.89)"/><path d="M1.06,7.79l0,0,.06.11a.63.63,0,0,0,.08.14,1.38,1.38,0,0,1,.1.16l.1.14a.87.87,0,0,0,.1.13.42.42,0,0,1,.08.09l0,0a.44.44,0,0,1-.18,0A.43.43,0,0,1,1.3,8.5s0,0-.08-.08l-.06-.08a1.05,1.05,0,0,1-.1-.19A.78.78,0,0,1,1,8a.3.3,0,0,1,0-.13A.12.12,0,0,0,1.06,7.79Z" transform="translate(0.06 -3.89)"/><path d="M1.41,7.16a.91.91,0,0,1,.14.09l.13.11a1,1,0,0,1,.14.13l.24.25a.89.89,0,0,1,.1.14L2,7.84a1.14,1.14,0,0,1-.3-.2.85.85,0,0,1-.21-.3A.3.3,0,0,1,1.41,7.16Z" transform="translate(0.06 -3.89)"/><path d="M10.78,6.25h0l.13,0a.75.75,0,0,1,.14.09l.13.11.22.22a.54.54,0,0,1,.1.13l-.16,0a.75.75,0,0,1-.3-.17A1,1,0,0,1,11,6.5l-.08-.13a.34.34,0,0,0-.06-.08S10.78,6.25,10.78,6.25Z" transform="translate(0.06 -3.89)"/><path d="M10.16,8.12a.55.55,0,0,1,.18,0,2,2,0,0,1,.37.08,2.24,2.24,0,0,1,.34.16.84.84,0,0,1,.14.11.55.55,0,0,1-.18,0,2,2,0,0,1-.37-.08,2.24,2.24,0,0,1-.34-.16A.43.43,0,0,1,10.16,8.12Z" transform="translate(0.06 -3.89)"/><path d="M6.89,4.64a.23.23,0,0,1,.08,0A.3.3,0,0,1,7,4.83.26.26,0,0,1,7,5a.22.22,0,0,1,0,.08L6.92,5a.31.31,0,0,1-.06-.13.42.42,0,0,1,0-.14A.14.14,0,0,1,6.89,4.64Z" transform="translate(0.06 -3.89)"/><path d="M8.84,8.48A.62.62,0,0,1,9,8.4a1.18,1.18,0,0,1,.37-.06,1.3,1.3,0,0,1,.37,0l.16.06a.63.63,0,0,1-.16,0l-.35,0H9.19a.67.67,0,0,1-.18,0Z" transform="translate(0.06 -3.89)"/><path d="M10.53,7.54l.1,0a.31.31,0,0,1,.19.06.34.34,0,0,1,.13.14.33.33,0,0,1,0,.09l-.1,0a.67.67,0,0,1-.16-.06.12.12,0,0,1-.06-.06l-.06-.06Z" transform="translate(0.06 -3.89)"/><path d="M12.54,7.33a.75.75,0,0,1,.06.13.29.29,0,0,1,0,.13s0,.09,0,.14,0,.19,0,.27a1.14,1.14,0,0,0,0,.13l0,0a.33.33,0,0,1-.1-.06.87.87,0,0,1-.1-.13.65.65,0,0,1-.06-.16.61.61,0,0,1,0-.3A.75.75,0,0,1,12.54,7.33Z" transform="translate(0.06 -3.89)"/><path d="M11.49,6.94a.13.13,0,0,1,.08,0,.27.27,0,0,1,.1.09.22.22,0,0,1,0,.14.12.12,0,0,1,0,.08.13.13,0,0,1-.08,0,.27.27,0,0,1-.1-.09.22.22,0,0,1,0-.14A.12.12,0,0,1,11.49,6.94Z" transform="translate(0.06 -3.89)"/><path d="M4.11,8.94l0,0h.11A.57.57,0,0,1,4.41,9s0,0,.06.06a.34.34,0,0,1,.06.08.34.34,0,0,0,0,.08s0,.06,0,.09a.26.26,0,0,1,0,.16.76.76,0,0,1,0,.11l0,0a.12.12,0,0,0,0,0,.22.22,0,0,0,0-.09l0-.11a.93.93,0,0,1-.06-.13.67.67,0,0,0-.08-.11A.42.42,0,0,1,4.22,9L4.14,9Z" transform="translate(0.06 -3.89)"/><path d="M4.91,9.8a.12.12,0,0,1,.08,0,.33.33,0,0,1,.18,0,.5.5,0,0,1,.16.08l.06.08a.12.12,0,0,1-.08,0,.33.33,0,0,1-.18,0A.5.5,0,0,1,5,9.88.17.17,0,0,1,4.91,9.8Z" transform="translate(0.06 -3.89)"/><path d="M12.25,9.63a.25.25,0,0,1,.08.11.29.29,0,0,1,0,.13V10l0,.14a.67.67,0,0,1-.08.11.33.33,0,0,1-.11.08.58.58,0,0,1,0-.13s0-.08,0-.11a.37.37,0,0,1,0-.13s0-.08,0-.13a1,1,0,0,1,0-.11A.26.26,0,0,1,12.25,9.63Z" transform="translate(0.06 -3.89)"/><path d="M13,9.5l.16,0,.14,0a.73.73,0,0,1,.18,0,.21.21,0,0,1,.1,0l.08,0h.11s0,0,0-.06v0s0,0,0,0a.15.15,0,0,1,0,.14s0,0-.08.08a.23.23,0,0,1-.11,0,.78.78,0,0,1-.19,0,.81.81,0,0,1-.19,0,.5.5,0,0,1-.16-.08A.21.21,0,0,1,13,9.57S13,9.5,13,9.5Z" transform="translate(0.06 -3.89)"/><path d="M6.28,8.07l.13,0,.11,0a.59.59,0,0,1,.11.09.49.49,0,0,1,.13.24.7.7,0,0,1,0,.13l-.11-.06a.83.83,0,0,1-.18-.16.42.42,0,0,1-.08-.09.33.33,0,0,1-.06-.09A.43.43,0,0,1,6.28,8.07Z" transform="translate(0.06 -3.89)"/><path d="M5.74,8.29h.08a.14.14,0,0,1,.1,0,.52.52,0,0,1,0,.09v.08l-.08,0a.17.17,0,0,1-.11,0,.17.17,0,0,1,0-.11A.19.19,0,0,1,5.74,8.29Z" transform="translate(0.06 -3.89)"/><path d="M4.62,6.25a.28.28,0,0,1,.11,0,.44.44,0,0,1,.19.19.12.12,0,0,1,0,.08v.08a.18.18,0,0,1,0,.13.22.22,0,0,1-.11.08V6.72s0,0,0-.08,0,0,0,0,0,0,0,0a1,1,0,0,1-.08-.19Z" transform="translate(0.06 -3.89)"/><path d="M4.06,5.74a.42.42,0,0,1,0,.17.72.72,0,0,1-.21.31.47.47,0,0,1-.19.11.41.41,0,0,1-.19,0,.25.25,0,0,1-.13,0,.07.07,0,0,1,0,0,.57.57,0,0,0,.16-.06.56.56,0,0,0,.13-.08.43.43,0,0,0,.13-.11c.1-.08.18-.17.26-.24Z" transform="translate(0.06 -3.89)"/><path d="M7.81,5.88A.39.39,0,0,1,7.88,6a.77.77,0,0,1,.06.2.91.91,0,0,1,0,.22l-.06.08a.46.46,0,0,1,0-.09.43.43,0,0,1,0-.2.4.4,0,0,1,0-.2A.14.14,0,0,1,7.81,5.88Z" transform="translate(0.06 -3.89)"/><path d="M8.6,4.78l.06.08a.33.33,0,0,1,0,.19v0h0a0,0,0,0,0,0,0l.06,0a0,0,0,0,1,0,0h0s0,0,0,0l-.06,0a.09.09,0,0,1-.08,0s0,0,0-.08V5.05a.37.37,0,0,1,0-.19A.12.12,0,0,1,8.6,4.78Z" transform="translate(0.06 -3.89)"/><path d="M9.81,5.44a.12.12,0,0,1,0,.08.23.23,0,0,1-.08.09.17.17,0,0,1-.13,0H9.49a.21.21,0,0,1,0-.08.28.28,0,0,1,.08-.11.24.24,0,0,1,.14,0Z" transform="translate(0.06 -3.89)"/><path d="M9.51,9.52l.22-.06.22,0,.13,0h.11a.23.23,0,0,0,.1,0l.1,0,.18-.13.18-.13a.54.54,0,0,1-.1.2.49.49,0,0,1-.14.17l-.11.09a.31.31,0,0,1-.16,0,1.48,1.48,0,0,1-.27,0,1,1,0,0,1-.22,0A.79.79,0,0,1,9.51,9.52Z" transform="translate(0.06 -3.89)"/><path d="M10.26,8.72a.26.26,0,0,1-.1.08,1,1,0,0,1-.22.09l-.24,0-.13,0,.08-.09a.75.75,0,0,1,.22-.13.49.49,0,0,1,.26,0A.39.39,0,0,1,10.26,8.72Z" transform="translate(0.06 -3.89)"/><path d="M13.6,9a.39.39,0,0,1,.13,0A1.31,1.31,0,0,1,14,9a1.21,1.21,0,0,1,.26.06l.11.06a.4.4,0,0,1-.11,0,.76.76,0,0,1-.27,0,1,1,0,0,1-.26-.06A.48.48,0,0,1,13.6,9Z" transform="translate(0.06 -3.89)"/><path d="M1.28,9a.43.43,0,0,1,.13.11.41.41,0,0,1,.08.14s0,.06,0,.09v.11a.35.35,0,0,1-.1.2.16.16,0,0,1-.08.06l-.08,0-.11,0,0,0a.12.12,0,0,1,0,0,.42.42,0,0,1,.08-.09l0,0,0,0a.29.29,0,0,0,0-.13.42.42,0,0,0,0-.14s0-.09,0-.14A.54.54,0,0,1,1.28,9Z" transform="translate(0.06 -3.89)"/><path d="M1.3,10.56a.2.2,0,0,1,.1,0,.46.46,0,0,1,.21,0,.7.7,0,0,1,.19.08.32.32,0,0,1,.08.08.2.2,0,0,1-.1,0,.46.46,0,0,1-.21,0,.7.7,0,0,1-.19-.08A.15.15,0,0,1,1.3,10.56Z" transform="translate(0.06 -3.89)"/><path d="M2.33,9.17a.4.4,0,0,1,.11,0l.22,0a1,1,0,0,1,.22,0,.4.4,0,0,1,.11,0,.4.4,0,0,1-.1.06.54.54,0,0,1-.24,0,.59.59,0,0,1-.24,0Z" transform="translate(0.06 -3.89)"/><path d="M4.12,8l0,0h.08a.21.21,0,0,1,.11,0s.06.06.1.09,0,0,0,.06a.09.09,0,0,1,0,.06.23.23,0,0,1,0,.11.17.17,0,0,1-.06.09.44.44,0,0,0,0-.09l0-.06,0-.06,0-.08,0-.06s0,0,0-.06A.05.05,0,0,0,4.12,8Z" transform="translate(0.06 -3.89)"/><path d="M7.27,10.05a.23.23,0,0,1,0,.13l-.11.09,0,0,0,0-.06,0H6.82l-.13,0a.39.39,0,0,1-.13,0l.11-.06.13,0,.06,0h0l.06,0H7l.11,0Z" transform="translate(0.06 -3.89)"/><path d="M11.38,10.29a.18.18,0,0,1,.08-.06.21.21,0,0,1,.1,0l.11,0a.37.37,0,0,1,.14.11s0,0,0,0l0,0a0,0,0,0,1,0,0,.12.12,0,0,1-.08,0,.28.28,0,0,1-.11,0l-.08,0a.65.65,0,0,1-.14-.08Z" transform="translate(0.06 -3.89)"/></svg>