<svg id="Cheese_Factory" data-name="Cheese Factory" xmlns="http://www.w3.org/2000/svg" viewBox="0 0 14.6 12.18"><defs><style>.cls-1{stroke:#000;stroke-miterlimit:10;stroke-width:0.25px;}</style></defs><title>cheese-15</title><path class="cls-1" d="M14.67,7.05a.25.25,0,0,0,0-.1h0a10.32,10.32,0,0,0-3.38-3.63.25.25,0,0,0-.35.07v0A1.35,1.35,0,0,1,9,3.58a1.43,1.43,0,0,1-.38-1.36A.19.19,0,0,0,8.55,2,.23.23,0,0,0,8.45,2a9,9,0,0,0-1.62-.41.26.26,0,0,0-.21.07L3.76,4.44a.24.24,0,0,0-.07.2.19.19,0,0,0,0,.21A.85.85,0,0,1,4,5.42a.58.58,0,0,1-.23.39,1.24,1.24,0,0,1-1.11.07v0a.25.25,0,0,0-.35,0L.4,7.65h0l0,.06v0a.24.24,0,0,0,0,.06v0l0,4.79a.25.25,0,0,0,.24.25L8,13.15H8a.25.25,0,0,0,.12,0h0a.22.22,0,0,0,.21-.24s0-.06,0-.1a1.46,1.46,0,1,1,2.92.09,1.07,1.07,0,0,1,0,.15.22.22,0,0,0,.14.24.24.24,0,0,0,.14.05l2.89.14h0a.25.25,0,0,0,.17-.07.25.25,0,0,0,.08-.18V7.06h0ZM2.59,6.27a2.29,2.29,0,0,0,.66.11A1.18,1.18,0,0,0,4,6.11a1,1,0,0,0,.37-.66,1.06,1.06,0,0,0-.25-.69l2.74-2.7a9.67,9.67,0,0,1,1.33.35,1.65,1.65,0,0,0,.56,1.49,1.92,1.92,0,0,0,1.11.39,1.72,1.72,0,0,0,1.18-.5A9.77,9.77,0,0,1,14,6.84L12,7a.25.25,0,0,0-.23.26.21.21,0,0,0,0,.1V7.4a.89.89,0,0,1-1.78.13s0-.06,0-.09a.21.21,0,0,0-.07-.17.25.25,0,0,0-.24-.16l-8.4.44Zm9.12,6.57a1.9,1.9,0,0,0-3.8-.19L.85,12.38l0-4.31,8.69-.46A1.34,1.34,0,0,0,10.84,8.8h.1a1.34,1.34,0,0,0,1.24-1.33l2-.14V13Z" transform="translate(-0.2 -1.41)"/><path class="cls-1" d="M7.15,4.59a1.33,1.33,0,0,0-.9.4.59.59,0,0,0-.16.44c0,.39.47.67,1,.67h.13a1.33,1.33,0,0,0,.9-.4.59.59,0,0,0,.16-.44C8.29,4.84,7.78,4.55,7.15,4.59Zm.73.86a1,1,0,0,1-.64.26c-.42,0-.75-.14-.76-.31a.22.22,0,0,1,.06-.16A1,1,0,0,1,7.17,5h.1c.38,0,.65.16.66.31A.22.22,0,0,1,7.87,5.45Z" transform="translate(-0.2 -1.41)"/><path class="cls-1" d="M4.13,9.18a1.33,1.33,0,0,0-.91.42.76.76,0,0,0-.2.56A1,1,0,0,0,4.15,11h.12a1.32,1.32,0,0,0,.91-.42.76.76,0,0,0,.2-.56A1.07,1.07,0,0,0,4.13,9.18Zm.76,1.12a1,1,0,0,1-.64.29c-.43,0-.81-.18-.83-.45a.4.4,0,0,1,.1-.28,1,1,0,0,1,.64-.29h.09c.39,0,.72.2.74.45A.38.38,0,0,1,4.88,10.3Z" transform="translate(-0.2 -1.41)"/><path class="cls-1" d="M12.52,9.25a1,1,0,0,0-.69.34.87.87,0,0,0-.21.63.94.94,0,0,0,1,.82h.08a1,1,0,0,0,.69-.34.87.87,0,0,0,.21-.63A.93.93,0,0,0,12.52,9.25Zm.53,1.2a.62.62,0,0,1-.42.21.55.55,0,0,1-.62-.46.47.47,0,0,1,.12-.35.63.63,0,0,1,.42-.21h.05a.55.55,0,0,1,.57.47A.47.47,0,0,1,13.06,10.44Z" transform="translate(-0.2 -1.41)"/></svg>