<svg id="Creamery" xmlns="http://www.w3.org/2000/svg" viewBox="0 0 8.03 13.69"><title>creamery-15</title><path d="M11,4.64l-.92-1.38h0a.89.89,0,0,0,.55-.82V1.55A.89.89,0,0,0,9.73.66H5.27a.89.89,0,0,0-.89.89v.89a.89.89,0,0,0,.39.74l.16.08L4,4.64a3.12,3.12,0,0,0-.52,1.73V13a1.34,1.34,0,0,0,1.34,1.34h5.36A1.34,1.34,0,0,0,11.52,13V6.38A3.12,3.12,0,0,0,11,4.64ZM5.27,1.55H9.73v.89H5.27ZM10.62,13a.44.44,0,0,1,0,.17.45.45,0,0,1-.16.2l-.12.06-.13,0H4.82a.44.44,0,0,1-.17,0,.45.45,0,0,1-.2-.16A.44.44,0,0,1,4.38,13V7.46a2.55,2.55,0,0,1,2.54.17L7,7.71H7a3.53,3.53,0,0,0,1.8.51A3.44,3.44,0,0,0,9.94,8l.68-.23V13Zm0-6.14-1,.33a2.54,2.54,0,0,1-2.24-.3L7.3,6.82h0a3.54,3.54,0,0,0-1.8-.51,3.42,3.42,0,0,0-1.12.19V6.38a2.23,2.23,0,0,1,.37-1.24L6,3.33H9l1.2,1.8a2.23,2.23,0,0,1,.37,1.24v.49Z" transform="translate(-3.48 -0.66)"/></svg>