<svg xmlns="http://www.w3.org/2000/svg" viewBox="0 0 12.56 13.97"><title>dump-15</title><path d="M13.21,2.19h-3V1.66A1.14,1.14,0,0,0,9,.52H5.93A1.14,1.14,0,0,0,4.79,1.66v.53h-3a.53.53,0,0,0,0,1.06h.77v9.32a1.91,1.91,0,0,0,1.92,1.92h6.12a1.91,1.91,0,0,0,1.92-1.92V3.23h.77a.54.54,0,0,0,.53-.53A.53.53,0,0,0,13.21,2.19ZM5.93,1.54H9a.13.13,0,0,1,.12.12v.53H5.81V1.66A.13.13,0,0,1,5.93,1.54Zm-2.37,11V3.23h7.83v9.32a.86.86,0,0,1-.86.86H4.42A.88.88,0,0,1,3.56,12.55Z" transform="translate(-1.22 -0.52)"/><path d="M7.48,12A.51.51,0,0,0,8,11.45V5.17a.52.52,0,0,0-.51-.53.54.54,0,0,0-.53.53v6.3A.52.52,0,0,0,7.48,12Z" transform="translate(-1.22 -0.52)"/><path d="M9.78,12a.54.54,0,0,0,.53-.53V5.17a.53.53,0,0,0-1.06,0v6.3A.55.55,0,0,0,9.78,12Z" transform="translate(-1.22 -0.52)"/><path d="M5.2,12a.54.54,0,0,0,.53-.53V5.17a.53.53,0,1,0-1.06,0v6.3A.51.51,0,0,0,5.2,12Z" transform="translate(-1.22 -0.52)"/></svg>