<svg id="Erosion" xmlns="http://www.w3.org/2000/svg" viewBox="0 0 12.2 14.13"><title>erosion-15</title><path d="M12,14.57H3a1.48,1.48,0,0,1,0-3h.31a.14.14,0,0,1,.13.13.65.65,0,0,0,.63.64h0a.65.65,0,0,0,.65-.64.14.14,0,0,1,.14-.13H6.71a.14.14,0,0,1,.14.13.65.65,0,0,0,.63.64h0a.65.65,0,0,0,.65-.64.14.14,0,0,1,.14-.13h1.84a.14.14,0,0,1,.13.13.65.65,0,0,0,.63.64h0a.65.65,0,0,0,.65-.64.14.14,0,0,1,.13-.13H12a1.48,1.48,0,0,1,0,3Zm-8.59-5a7.08,7.08,0,0,0,.73-1.41,7.2,7.2,0,0,0,.65,1.45.79.79,0,1,1-1.39,0Zm3.41,0a7,7,0,0,0,.73-1.41,6.88,6.88,0,0,0,.66,1.45.79.79,0,1,1-1.39,0Zm3.41,0A7.15,7.15,0,0,0,11,8.19a7,7,0,0,0,.65,1.45.79.79,0,1,1-1.39,0Zm.68-2.45H2.78a1.38,1.38,0,0,1-.34-2.71A2,2,0,0,1,4,3.22,2.93,2.93,0,0,1,9.62,2.11a2.66,2.66,0,0,1,1.29-.33,2.69,2.69,0,1,1,0,5.37Z" transform="translate(-1.4 -0.43)"/></svg>