<svg id="Fur_Farm" data-name="Fur Farm" xmlns="http://www.w3.org/2000/svg" viewBox="0 0 13.87 13.71"><defs><style>.cls-1{fill:none;stroke:#000;stroke-linejoin:round;stroke-width:1.25px;}</style></defs><title>fur-15</title><path class="cls-1" d="M6.3,1.27H8.42a3.71,3.71,0,0,0,2,1.4,3.65,3.65,0,0,0,1.87,0l1.52,1.9a5.05,5.05,0,0,0-2,3.29,5.12,5.12,0,0,0,1.28,4.06L11,13.33a2.83,2.83,0,0,0-3.49.4A2.64,2.64,0,0,0,4,13.33l-2.1-1.4A5.18,5.18,0,0,0,3.15,8a5.15,5.15,0,0,0-2-3.43l1.52-1.9a3,3,0,0,0,1.87,0A3,3,0,0,0,6.3,1.27Z" transform="translate(-0.56 -0.65)"/><path class="cls-1" d="M17.92,7.17" transform="translate(-0.56 -0.65)"/><path class="cls-1" d="M18.42,7.67" transform="translate(-0.56 -0.65)"/><path class="cls-1" d="M17.25,8.21" transform="translate(-0.56 -0.65)"/></svg>