<svg xmlns="http://www.w3.org/2000/svg" viewBox="0 0 14.95 8.14"><title>gravel-15</title><polygon points="8.51 8.14 14.96 8.14 14.83 7.69 14.59 7.39 14.55 6.76 14.08 6.21 13.91 5.4 12.79 4.86 12.29 4.45 11.45 4.32 10.4 5.02 9.57 5.96 9.59 6.52 9.2 6.76 8.91 7.2 8.84 7.72 8.51 8.14"/><polygon points="8.75 7.16 9.05 6.73 9.45 6.45 9.43 5.89 10.28 4.92 11.38 4.18 12.15 4.29 11.9 4.01 11.54 2.32 9.17 1.13 8.07 0.24 6.31 0 4.04 1.5 2.28 3.5 2.32 4.67 1.5 5.23 0.87 6.15 0.71 7.25 0 8.14 8.33 8.14 8.66 7.7 8.75 7.16"/></svg>