<svg xmlns="http://www.w3.org/2000/svg" viewBox="0 0 14.75 4.29"><title>logging-15</title><path d="M1,7.2c0,.38,0,2.15,0,2.15H.22s0-1.5,0-2S.13,5.83.13,5.83A.46.46,0,0,1,.24,5.5a.44.44,0,0,1,.32-.14H.65A.43.43,0,0,1,1,5.5a.46.46,0,0,1,.12.34S1,6.86,1,7.2ZM14.87,5.83a.46.46,0,0,0-.12-.34.43.43,0,0,0-.32-.14h-.08A.44.44,0,0,0,14,5.5a.46.46,0,0,0-.12.34S14,7,14,7.35s0,2,0,2h.8s0-1.78,0-2.15S14.87,5.83,14.87,5.83ZM1.29,7.2V8.79h0l.18,0,.31-.18L2.07,9l.37-.22.26.35.37-.23.27.35L3.7,9,4,9.36l.36-.25.28.34L5,9.2l.29.33.35-.26.3.32.34-.27.3.31.33-.28.31.3.32-.29.32.29.31-.3.33.28.3-.31.34.27.29-.32.34.26L10,9.2l.35.25.28-.33.36.25L11.29,9l.36.24.26-.35.36.23.26-.35L12.9,9l.25-.35.31.18.06,0,.21-.06V7.2Z" transform="translate(-0.12 -5.36)"/></svg>