<svg id="Occupied_School" data-name="Occupied School" xmlns="http://www.w3.org/2000/svg" viewBox="0 0 7.44 14.01"><defs><style>.cls-1,.cls-2{stroke:#000;stroke-miterlimit:10;}.cls-2{stroke-width:0.75px;}</style></defs><title>occupied-school-15</title><polyline class="cls-1" points="6.58 7.43 6.58 13.28 0.73 13.28 0.73 7.43 6.58 7.43"/><polygon class="cls-2" points="0.98 6.7 0.98 3.68 6.07 3.68 0.98 0.66 0.98 3.68 0.98 6.7"/><path d="M10.43,7.92v5.85H4.57V7.92h5.85m.17-.73H4.41a.56.56,0,0,0-.56.56v6.19a.56.56,0,0,0,.56.56h6.19a.56.56,0,0,0,.56-.56V7.75a.56.56,0,0,0-.56-.56Z" transform="translate(-3.84 -0.49)"/></svg>