<svg xmlns="http://www.w3.org/2000/svg" viewBox="0 0 13.41 14.25"><title>quarry-15</title><path d="M3.52,14.63a.42.42,0,0,1-.42-.42v-1a.42.42,0,0,1,.16-.33l1-.84.13-.07,1.89-.63a.42.42,0,0,1,.3,0l1.06.46,0-.17a.42.42,0,0,1,.07-.15l.63-.84a.42.42,0,0,1,.1-.1l1.26-.84a.42.42,0,0,1,.44,0l1.85,1,1.22.41a.42.42,0,0,1,.28.3l.63,2.72a.42.42,0,0,1-.41.51Zm8.9-.84h.85l-.46-2-1-.34-.07,0-1.16-.64L11.78,12a.42.42,0,0,1,.1.16Zm-.88,0-.41-1.24L9.46,10.89,9,11.16l-.53.71L8,13.79Zm-5.71,0h0v-.46l-.74-.74-.31.1-.83.67v.43Zm.84,0h.5l.27-1.22-1-.43L6,12.29l.57.57a.42.42,0,0,1,.12.3Zm.1-9.15L1.51,9.89A.42.42,0,1,1,.92,9.3L6.17,4,6.09,4A.63.63,0,0,1,6,3.29l-.19-.16c-.63-.5-1.3-1-2-1.42L3.13,1.3,3,1.19l-.06,0a.42.42,0,0,1,.2-.78h.38c.24,0,.51,0,.8.07A10.21,10.21,0,0,1,6.59,1a7.23,7.23,0,0,1,1.14.54.63.63,0,0,1,.63.16l.75.75a.63.63,0,0,1,.16.63,7.23,7.23,0,0,1,.54,1.14,10.21,10.21,0,0,1,.55,2.33c0,.28.06.55.07.8s0,.28,0,.37a.42.42,0,0,1-.78.21l0-.06-.11-.18L9.1,7c-.44-.67-.92-1.35-1.42-2l-.16-.2a.63.63,0,0,1-.67-.14l-.08-.08ZM8.15,4.3l.18.22c.38.48.75,1,1.1,1.49A8.89,8.89,0,0,0,9,4.51a6.68,6.68,0,0,0-.33-.75ZM7.05,2.12a6.68,6.68,0,0,0-.75-.33,8.89,8.89,0,0,0-1.51-.41c.51.35,1,.72,1.49,1.1l.22.18Zm1.32.77-.46-.46L6.84,3.52,7.29,4Z" transform="translate(-0.79 -0.37)"/></svg>