<svg xmlns="http://www.w3.org/2000/svg" viewBox="0 0 8.87 13.65"><title>spring-15</title><path d="M7.5,14.33A4.44,4.44,0,0,1,3.07,9.89a4.29,4.29,0,0,1,.45-2A4.56,4.56,0,0,1,4,7.22l.24-.34.22-.33c.38-.56.8-1.19,1.17-1.82A27.18,27.18,0,0,0,7,2L7.5.67,8,2A26.61,26.61,0,0,0,9.42,4.73c.37.63.79,1.27,1.17,1.83l.22.32.24.35a4.66,4.66,0,0,1,.44.74,4.27,4.27,0,0,1,.45,1.93A4.44,4.44,0,0,1,7.5,14.33Zm0-10.71c-.24.49-.55,1.09-.9,1.7S5.75,6.66,5.39,7.21l-.22.32-.25.37a3.48,3.48,0,0,0-.35.58,3.11,3.11,0,0,0-.33,1.42,3.26,3.26,0,0,0,6.51,0,3.09,3.09,0,0,0-.32-1.4,3.62,3.62,0,0,0-.35-.59l-.25-.37-.21-.32C9.25,6.66,8.79,6,8.4,5.32S7.74,4.11,7.5,3.62Z" transform="translate(-3.07 -0.67)"/></svg>